<?xml version="1.0" encoding="UTF-8"?>
<svg id="Layer_1" xmlns="http://www.w3.org/2000/svg" version="1.1" viewBox="0 0 512 512">
  <!-- Generator: Adobe Illustrator 30.2.1, SVG Export Plug-In . SVG Version: 2.1.1 Build 1)  -->
  <defs>
    <style>
      .st0 {
        fill: #fff;
      }
    </style>
  </defs>
  <path class="st0" d="M91.04,187.13c0,37.87,13.05,74.77,36.89,104.08l18.66-15.15c-20.34-24.97-31.56-56.67-31.56-88.93s11.22-63.82,31.42-88.79l-18.66-15.01c-23.85,29.17-36.75,66.06-36.75,103.8Z"/>
  <path class="st0" d="M45.17,187.13c0,48.11,16.69,95.25,46.99,132.7l18.52-15.01c-26.79-33.1-41.66-74.91-41.66-117.55s14.73-84.44,41.52-117.55l-18.52-15.01c-30.16,37.17-46.85,84.3-46.85,132.42Z"/>
  <path class="st0" d="M0,187.13c0,58.49,20.34,115.73,57.09,161.17l18.66-15.15c-33.39-41.1-51.76-93-51.76-146.17s18.38-104.78,51.48-145.88l-18.66-14.87C20.2,71.54,0,128.77,0,187.13Z"/>
  <path class="st0" d="M365.69,98.33c20.34,24.97,31.42,56.53,31.42,88.79s-11.22,63.96-31.56,88.93l18.52,15.15c23.85-29.32,36.89-66.21,36.89-104.08s-13.05-74.63-36.75-103.94l-18.52,15.15Z"/>
  <path class="st0" d="M401.32,69.72c26.79,33.1,41.52,74.77,41.52,117.55s-14.73,84.44-41.66,117.55l18.66,15.01c30.3-37.31,46.99-84.44,46.99-132.7s-16.69-95.25-46.85-132.56l-18.66,15.15Z"/>
  <path class="st0" d="M436.53,41.24c33.24,41.1,51.48,92.86,51.48,145.88s-18.38,104.92-51.76,146.17l18.66,15.15c36.75-45.45,57.09-102.68,57.09-161.17s-20.2-115.59-56.81-160.9l-18.66,14.87Z"/>
  <g>
    <path class="st0" d="M60.32,484.65h-11.93l-6.59-20.48h-22.72l-6.17,20.48H1.26l22.58-70h13.89l22.59,70M39.84,455.61l-5.89-18.38c-.56-1.82-1.82-6.31-3.51-13.19h-.28c-.7,2.95-1.82,7.43-3.37,13.19l-5.75,18.38h18.8Z"/>
    <path class="st0" d="M111.1,484.65h-9.82l-.56-7.57h-.42c-3.51,5.75-8.84,8.7-15.99,8.7-5.05,0-8.98-1.54-11.92-4.63-3.51-3.79-5.33-9.54-5.33-17.25v-29.74h11.22v27.91c0,9.68,3.37,14.59,9.96,14.59,4.91,0,8.42-2.52,10.38-7.29.56-1.26.7-2.67.7-4.21v-30.86h11.22v36.05c0,4.62.28,9.39.56,14.3Z"/>
    <path class="st0" d="M169.87,484.65h-9.96l-.56-8h-.28c-3.23,6.17-8.56,9.12-16.27,9.12-6.03,0-11.22-2.38-15.15-7.15-4.07-4.77-6.03-10.94-6.03-18.52,0-8.14,2.24-14.73,6.59-19.78,4.21-4.77,9.54-7.15,15.71-7.15,6.87,0,11.64,2.38,14.31,6.87v-28.9h11.22v60.04c.14,4.91.28,9.4.42,13.47M158.23,463.47v-8.42c0-1.4-.14-2.67-.28-3.51-.56-2.67-1.96-5.05-4.07-6.73-2.1-1.82-4.63-2.81-7.57-2.81-4.07,0-7.43,1.68-9.82,4.91-2.38,3.37-3.65,7.57-3.65,12.76s1.12,9.12,3.37,12.2c2.38,3.37,5.75,5.05,9.82,5.05,3.65,0,6.59-1.4,8.84-4.21,2.38-2.65,3.36-5.6,3.36-9.24Z"/>
    <path class="st0" d="M195.96,419.14c0,1.96-.7,3.65-1.96,4.91-1.26,1.26-3.09,1.82-5.19,1.82-1.82,0-3.37-.7-4.77-1.96-1.26-1.26-1.96-2.81-1.96-4.77,0-1.82.7-3.51,1.96-4.77,1.26-1.26,2.95-1.82,4.91-1.82s3.65.56,4.91,1.82c1.54,1.26,2.1,2.8,2.1,4.77M194.84,484.65h-11.22v-50.5h11.22v50.5Z"/>
    <path class="st0" d="M255.16,459.12c0,7.72-2.24,14.17-6.59,19.08-4.63,5.05-10.8,7.57-18.52,7.57s-13.33-2.52-17.81-7.29c-4.35-4.91-6.59-11.08-6.59-18.52,0-7.86,2.24-14.17,6.87-19.22,4.49-4.91,10.66-7.43,18.38-7.43s13.33,2.52,17.96,7.43c4.19,4.63,6.3,10.8,6.3,18.38M243.52,459.4c0-4.63-.98-8.56-2.95-11.92-2.38-3.93-5.75-6.03-10.1-6.03s-8,2.1-10.24,6.03c-2.1,3.37-2.95,7.43-2.95,12.2s.98,8.7,2.95,11.92c2.38,3.93,5.89,6.03,10.24,6.03s7.57-2.1,10.1-6.17c1.82-3.37,2.95-7.43,2.95-12.06Z"/>
    <path class="st0" d="M343.11,455.33c0,10.38-2.52,18.1-7.43,23.29-4.63,4.77-11.08,7.15-19.36,7.15-17.11,0-25.53-10.1-25.53-30.3v-40.82h11.22v41.38c0,6.87,1.4,12.06,4.07,15.57,2.52,3.23,6.03,4.91,10.66,4.91,10.1,0,15.15-6.87,15.15-20.62v-41.38h11.22s0,40.82,0,40.82Z"/>
    <path class="st0" d="M401.04,484.65h-11.22v-28.9c0-8.98-3.37-13.47-10.24-13.47-3.23,0-6.03,1.26-8.14,3.65-2.1,2.52-3.09,5.33-3.09,8.7v30.02h-11.22v-36.05c0-4.49-.14-9.26-.42-14.45h9.82l.56,7.86h.28c1.26-2.38,3.23-4.49,5.75-6.03,3.09-1.82,6.45-2.81,10.24-2.81,4.77,0,8.56,1.54,11.78,4.63,3.93,3.79,5.89,9.4,5.89,16.83v30.02h.01Z"/>
    <path class="st0" d="M426.43,419.14c0,1.96-.7,3.65-1.96,4.91-1.26,1.26-3.09,1.82-5.19,1.82-1.82,0-3.51-.7-4.77-1.96s-1.96-2.81-1.96-4.77c0-1.82.7-3.51,1.96-4.77s2.95-1.82,4.91-1.82,3.65.56,4.91,1.82c1.4,1.26,2.1,2.8,2.1,4.77M425.17,484.65h-11.22v-50.5h11.22v50.5Z"/>
    <path class="st0" d="M464.73,442.7h-12.34v24.41c0,6.17,2.24,9.26,6.59,9.26,1.96,0,3.65-.14,5.05-.42l.28,8.42c-2.24.7-5.19,1.12-8.7,1.12-4.49,0-7.86-1.4-10.38-4.07-2.52-2.67-3.79-7.15-3.79-13.47v-25.53h-7.43v-8.28h7.43v-9.12l10.94-3.37v12.48h12.48v8.56h-.13Z"/>
    <path class="st0" d="M505.41,470.06c0,4.77-1.68,8.42-5.19,11.36-3.51,2.81-8.28,4.21-14.31,4.21s-10.66-1.12-14.73-3.23l2.38-8.28c3.93,2.38,8,3.65,12.34,3.65,5.75,0,8.56-2.24,8.56-6.45,0-1.82-.7-3.37-1.82-4.63-1.26-1.26-3.51-2.38-6.59-3.51-8.98-3.37-13.47-8.14-13.47-14.59,0-4.35,1.68-8,4.91-10.94,3.37-2.95,7.72-4.35,13.19-4.35,5.05,0,9.26.98,12.76,3.09l-2.38,8c-3.23-1.96-6.73-2.95-10.24-2.95-2.38,0-4.21.56-5.47,1.68s-1.96,2.52-1.96,4.21c0,1.82.7,3.23,2.1,4.21,1.12,1.12,3.51,2.24,6.87,3.51,8.7,3.23,13.05,8.27,13.05,15.01Z"/>
  </g>
  <circle class="st0" cx="256.14" cy="186.42" r="109.41"/>
</svg>