<?xml version="1.0" encoding="UTF-8"?>
<svg id="Layer_1" xmlns="http://www.w3.org/2000/svg" version="1.1" viewBox="0 0 6000 3810">
  <!-- Generator: Adobe Illustrator 30.2.1, SVG Export Plug-In . SVG Version: 2.1.1 Build 1)  -->
  <defs>
    <style>
      .st0 {
        fill: #fff;
      }
    </style>
  </defs>
  <path class="st0" d="M1117.2,3347.6c0-6.4,238.6-313.7,580.8-747.7l121-154,649.6-1c357,0,648.6,3,648.6,5,0,3-33,46-73.4,95s-73.4,95-73.4,100c0,7,81.7,10,257,10,141.2,0,256.8,3,256.8,5,0,3-16.5,26-37.7,50l-37.6,45h-531l-106,133c-58,73-106,135-106,137s117,5,261,6l260,3-38,49-38,48h-534l-86,110-85,110h-646c-356,0-646.8-3-646.8-7l4.1,3.7Z"/>
  <path class="st0" d="M2724.6,3346.7c1.8-3.7,23.8-34,48.6-68l45.8-61.3,322-1h322l97.3-123.8c54-68,98.2-125.7,98.2-127.5,0-2-121-6-269.7-7l-269.8-3,45-57,45-57h549.5l94.5-120c52.3-66,96.3-123,97.2-128,2-5-115.6-9-313.7-9-174.3,0-317.5-2-317.5-5s22-34,48.7-68l47.7-64,745.8-1h746.8l-26.6,35c-13.8,19-174.3,224-355,454l-330.4,418.9h-737.5c-405.5,0-735.8-2.7-734-7.3h.1ZM2135.6,1738.5v-267l25.7,5.5c13.7,2.8,48.6,7.4,77,11,49.6,5.5,53.2,7.4,72.5,44,46.8,91,130.3,180,223.8,239.5,180,115.6,468.8,172.5,764.3,151.4,194-14,298-49,374-125,49-49,58-90,34-139-42-81-149-122-590-223-154-36-318-75-364-87-220-60-405-139-468-199l-29-28,19-24c92-111,132-134,258-151,43-6,78-13,78-16,0-9-129,4-184,18-91,22-97,29-564,639l-303,396h-91l-416-490c-230-270-432-503-452-516-34-25-84-38-198-52-46-6-49-7-49-32v-26h1110v26c0,31-5.4,32-155,41-82.6,5.2-120,21-120,51,0,10,44,72.5,99,139.5,312,386.2,401,493.5,406.3,491.7,8-2.7,367-468.8,423-547.7,36-51.2,44-91.5,22-110-16-13.6-95-26.5-179-30.2l-69-2.7-3-29.3-3-30h170c160,0,170-1,176-17,8-27,99-106,170-148,174-104,404-143,797-134,188,4,260,9,432,34,248,35,282,34,330-13,32-31,37-33,94.7-33h61.8l2.4,150c2,82,2,183,0,225l-2.8,76h-64c-37,0-64.6-3.4-64.6-9s-35.3-46-80-92c-172-174-387-260-691-273-323-13-554,73-537,202,12,101,93,139,519.3,240,387,91.4,440,103.3,445,99,2.8-3,4.6-79,4.6-170v-166.2h88c35-1,57,0,57,0l45,38.6,40,38.4,42,36.6-81,75.3c-47.6,44-75.3,77-92,123-3,8-10,24-9.6,32,.4,15,1,16,84.3,42,248.5,76,387,177,416.4,303,20,89-23,177-125,253-206.4,156-467,215-936.7,217-250.7,1-354-7-592-49-178-30-253-21-284.5,36-8,17-18,19-87,19h-78v-267l.1,2.6Z"/>
  <path class="st0" d="M4047.5,1965c-2.8-7.3-3.7-24.7-2-39.4,3-24.7,5.6-25.6,53.3-28.4,87.2-3.7,174.3-20.2,211-38.5,28.5-14.7,38.6-26.6,46-54.2,5.4-22,9-195.4,9-463.3v-427.5l-216.8-2.7c.8-52.7,1.5-27.2,0-68.8,147.5-2,377.4-1,754.5,0l687,2.7,3,172,1.7,171h-50.4c-27.6,0-50.5-5-50.5-10,0-24-42.2-96-77-130-77-79-212-120-425.7-133l-112-7v449c0,338,2.8,454,12,471,21,42,72.4,59,197.2,62l112.8,4-2.7,39-3,37.2-572,3c-487,2-572,0-576-11l.6,2.9Z"/>
</svg>