<svg width="100" height="24" viewBox="0 0 100 24" fill="none" xmlns="http://www.w3.org/2000/svg">
<path d="M3.77077 21.1609H1.8858V19.2579H0V21.1609H0.942485V22.1132H1.8858V23.0647H3.77077V22.1132H4.71326V21.1609H5.65575V19.2579H3.77077V21.1609Z" fill="#D3FF0D" fill-opacity="0.4"/>
<path d="M8.48308 20.2361H10.368V22.1399H8.48308V20.2361H6.5981V23.0914H12.2538V19.2846H8.48308V20.2361Z" fill="#D3FF0D" fill-opacity="0.4"/>
<path d="M15.0833 18.3056H13.1983V23.0639H15.0833V18.3056Z" fill="#D3FF0D" fill-opacity="0.4"/>
<path d="M19.796 19.2571H16.0253V23.0639H21.681V18.3056H19.796V19.2571ZM19.796 22.1124H17.9111V20.2094H19.796V22.1124Z" fill="#D3FF0D" fill-opacity="0.4"/>
<path d="M24.5082 21.1603H22.6232V23.0633H24.5082V21.1603Z" fill="#D3FF0D" fill-opacity="0.4"/>
<path d="M27.3372 18.3056H25.4522V23.0639H27.3372V18.3056Z" fill="#D3FF0D" fill-opacity="0.4"/>
<path d="M30.1669 20.2094H32.0519V22.1132H30.1669V20.2094H28.2811V23.0647H33.9369V19.2579H30.1669V20.2094Z" fill="#D3FF0D" fill-opacity="0.4"/>
<path d="M36.7641 18.3056H34.8791V23.0639H40.5348V19.2571H36.7641V18.3056ZM38.65 20.2086V22.1116H36.7649V20.2086H38.65Z" fill="#D3FF0D" fill-opacity="0.4"/>
<path d="M41.4772 22.1126V23.0642H47.133V21.1603H44.3056V22.1126H41.4772Z" fill="#D3FF0D" fill-opacity="0.4"/>
<path d="M41.4772 21.1609L44.3056 21.1603V20.2094H47.133V19.2579H41.4772V21.1609Z" fill="#D3FF0D" fill-opacity="0.4"/>
<path d="M12.1823 17.646H8.44458V18.5009H12.1823V17.646Z" fill="#D3FF0D" fill-opacity="0.4"/>
<path d="M12.6726 3.22613H19.0086V9.56217H15.8406V12.7302H12.6726V15.8982H6.33653V12.7302H3.16851V9.56217H0.000488281V3.22613H6.33653V9.56217H12.6726V3.22613Z" fill="#D3FF0D"/>
<path d="M33.0813 9.54105V6.39415H26.7664V9.54105H33.0813ZM20.4303 3.22613H39.4385V9.60441H33.1024V12.7302H39.4385V15.8982H20.4303V3.22613Z" fill="#D3FF0D"/>
<path d="M50.3643 3.22613H59.8683V6.39415H56.7003V12.7302H62.7788V15.8982H50.3643V9.56217H47.1963V15.8982H40.8602V0.0581055H47.1963V6.39415H50.3643V3.22613Z" fill="#D3FF0D"/>
<path d="M70.212 3.22613H79.7161V6.39415H70.212V12.7302H79.7161V15.8982H63.876V6.39415H58.9617V3.22613H63.876V0.0581055H70.212V3.22613Z" fill="#D3FF0D"/>
<path d="M93.2067 9.54105V6.39415H86.8918V9.54105H93.2067ZM80.5557 3.22613H99.5639V9.60441H93.2278V12.7302H99.5639V15.8982H80.5557V3.22613Z" fill="#D3FF0D"/>
</svg>
