<svg width="512" height="512" viewBox="0 0 512 512" fill="none" xmlns="http://www.w3.org/2000/svg">
<rect width="512" height="512" fill="#121212"/>
<rect width="512" height="512" fill="url(#paint0_radial_2_205)" fill-opacity="0.04"/>
<path fill-rule="evenodd" clip-rule="evenodd" d="M410.905 218.006C410.905 219.111 410.01 220.006 408.905 220.006H401.654C400.55 220.006 399.654 220.902 399.654 222.006V265.42C399.654 266.524 400.55 267.42 401.654 267.42H408.905C410.01 267.42 410.905 268.315 410.905 269.42V271.558C410.905 272.663 410.01 273.558 408.905 273.558H347.895C346.791 273.558 345.895 272.663 345.895 271.558V269.42C345.895 268.315 346.791 267.42 347.895 267.42H354.254C355.358 267.42 356.254 266.524 356.254 265.42V253.987C356.254 252.882 355.358 251.987 354.254 251.987H347.895C346.791 251.987 345.895 251.092 345.895 249.987V247.941C345.895 246.836 346.791 245.941 347.895 245.941H354.254C355.358 245.941 356.254 245.046 356.254 243.941V222.006C356.254 220.902 355.358 220.006 354.254 220.006H347.895C346.791 220.006 345.895 219.111 345.895 218.006V216.594C345.895 215.49 346.791 214.594 347.895 214.594H408.905C410.01 214.594 410.905 215.49 410.905 216.594V218.006ZM367.565 254.38C367.565 255.485 368.461 256.38 369.565 256.38H387.235C388.34 256.38 389.235 255.485 389.235 254.38V234.088C389.235 232.983 388.34 232.088 387.235 232.088H369.565C368.461 232.088 367.565 232.983 367.565 234.088V254.38Z" fill="#728810"/>
<path d="M69.1639 223.751C69.1639 222.647 70.0594 221.751 71.1639 221.751H153.842C154.947 221.751 155.842 222.647 155.842 223.751V263.091C155.842 264.195 154.947 265.091 153.842 265.091H136.173C135.068 265.091 134.173 264.195 134.173 263.091V234.586C134.173 233.482 133.277 232.586 132.173 232.586H125.338C124.233 232.586 123.338 233.482 123.338 234.586V263.091C123.338 264.195 122.443 265.091 121.338 265.091H103.668C102.564 265.091 101.668 264.195 101.668 263.091V234.586C101.668 233.482 100.773 232.586 99.6684 232.586H92.8336C91.729 232.586 90.8336 233.482 90.8336 234.586V263.091C90.8336 264.195 89.9381 265.091 88.8336 265.091H71.1639C70.0594 265.091 69.1639 264.195 69.1639 263.091V223.751Z" fill="#D3FF0D"/>
<path d="M201.985 243.349C203.09 243.349 203.985 242.453 203.985 241.349V234.586C203.985 233.482 203.09 232.586 201.985 232.586H184.388C183.283 232.586 182.388 233.482 182.388 234.586V241.349C182.388 242.453 183.283 243.349 184.388 243.349H201.985ZM160.718 223.751C160.718 222.647 161.614 221.751 162.718 221.751H223.727C224.832 221.751 225.727 222.647 225.727 223.751V241.566C225.727 242.67 224.832 243.566 223.727 243.566H206.057C204.953 243.566 204.057 244.461 204.057 245.566V252.256C204.057 253.36 204.953 254.256 206.057 254.256H223.727C224.832 254.256 225.727 255.151 225.727 256.256V263.091C225.727 264.195 224.832 265.091 223.727 265.091H162.718C161.614 265.091 160.718 264.195 160.718 263.091V223.751Z" fill="#D3FF0D"/>
<path d="M252.272 219.751C252.272 220.856 253.168 221.751 254.272 221.751H282.777C283.881 221.751 284.777 222.647 284.777 223.751V230.586C284.777 231.691 283.881 232.586 282.777 232.586H254.272C253.168 232.586 252.272 233.482 252.272 234.586V252.256C252.272 253.36 253.168 254.256 254.272 254.256H282.777C283.881 254.256 284.777 255.151 284.777 256.256V263.091C284.777 264.195 283.881 265.091 282.777 265.091H232.603C231.498 265.091 230.603 264.195 230.603 263.091V221.748V221.751V212.917C230.603 211.812 231.498 210.917 232.603 210.917H250.272C251.377 210.917 252.272 211.812 252.272 212.917V219.751Z" fill="#D3FF0D"/>
<path d="M330.919 243.349C332.024 243.349 332.919 242.453 332.919 241.349V234.586C332.919 233.482 332.024 232.586 330.919 232.586H313.322C312.218 232.586 311.322 233.482 311.322 234.586V241.349C311.322 242.453 312.218 243.349 313.322 243.349H330.919ZM289.652 223.751C289.652 222.647 290.548 221.751 291.652 221.751H352.661C353.766 221.751 354.661 222.647 354.661 223.751V241.566C354.661 242.67 353.766 243.566 352.661 243.566H334.992C333.887 243.566 332.992 244.461 332.992 245.566V252.256C332.992 253.36 333.887 254.256 334.992 254.256H352.661C353.766 254.256 354.661 255.151 354.661 256.256V263.091C354.661 264.195 353.766 265.091 352.661 265.091H291.652C290.548 265.091 289.652 264.195 289.652 263.091V223.751Z" fill="#D3FF0D"/>
<path d="M401.231 223.751C401.231 222.647 402.127 221.751 403.231 221.751H464.24C465.345 221.751 466.24 222.647 466.24 223.751V230.586C466.24 231.691 465.345 232.586 464.24 232.586H424.901C423.797 232.586 422.901 233.482 422.901 234.586V263.091C422.901 264.195 422.006 265.091 420.901 265.091H403.231C402.127 265.091 401.231 264.195 401.231 263.091V223.751Z" fill="#D3FF0D"/>
<defs>
<radialGradient id="paint0_radial_2_205" cx="0" cy="0" r="1" gradientUnits="userSpaceOnUse" gradientTransform="translate(256 256) rotate(90) scale(456.046 256.526)">
<stop stop-color="#D3FF0D"/>
<stop offset="1"/>
</radialGradient>
</defs>
</svg>
