<svg width="398" height="91" viewBox="0 0 398 91" fill="none" xmlns="http://www.w3.org/2000/svg">
<path fill-rule="evenodd" clip-rule="evenodd" d="M341.741 7.08984C341.741 8.19441 340.846 9.08984 339.741 9.08984H332.49C331.386 9.08984 330.49 9.98527 330.49 11.0898V54.5029C330.49 55.6075 331.386 56.5029 332.49 56.5029H339.741C340.846 56.5029 341.741 57.3984 341.741 58.5029V60.6416C341.741 61.7462 340.846 62.6416 339.741 62.6416H278.731C277.627 62.6416 276.731 61.7462 276.731 60.6416V58.5029C276.731 57.3984 277.627 56.5029 278.731 56.5029H285.09C286.194 56.5029 287.09 55.6075 287.09 54.5029V43.0703C287.09 41.9657 286.194 41.0703 285.09 41.0703H278.731C277.627 41.0703 276.731 40.1749 276.731 39.0703V37.0244C276.731 35.9198 277.627 35.0244 278.731 35.0244H285.09C286.194 35.0244 287.09 34.129 287.09 33.0244V11.0898C287.09 9.98527 286.194 9.08984 285.09 9.08984H278.731C277.627 9.08984 276.731 8.19441 276.731 7.08984V5.67773C276.731 4.57316 277.627 3.67773 278.731 3.67773H339.741C340.846 3.67773 341.741 4.57316 341.741 5.67773V7.08984ZM298.401 43.4639C298.401 44.5684 299.297 45.4639 300.401 45.4639H318.071C319.176 45.4639 320.071 44.5684 320.071 43.4639V23.1709C320.071 22.0663 319.176 21.1709 318.071 21.1709H300.401C299.297 21.1709 298.401 22.0663 298.401 23.1709V43.4639Z" fill="#728810"/>
<path d="M0 12.8348C0 11.7303 0.89543 10.8348 2 10.8348H84.6785C85.7831 10.8348 86.6785 11.7302 86.6785 12.8348V52.1741C86.6785 53.2787 85.7831 54.1741 84.6785 54.1741H67.0089C65.9043 54.1741 65.0089 53.2787 65.0089 52.1741V23.6696C65.0089 22.5651 64.1135 21.6696 63.0089 21.6696H56.1741C55.0695 21.6696 54.1741 22.5651 54.1741 23.6696V52.1741C54.1741 53.2787 53.2787 54.1741 52.1741 54.1741H34.5044C33.3999 54.1741 32.5044 53.2787 32.5044 52.1741V23.6696C32.5044 22.5651 31.609 21.6696 30.5044 21.6696H23.6696C22.5651 21.6696 21.6696 22.5651 21.6696 23.6696V52.1741C21.6696 53.2787 20.7742 54.1741 19.6696 54.1741H2C0.895432 54.1741 0 53.2787 0 52.1741V12.8348Z" fill="#D3FF0D"/>
<path d="M132.821 32.4322C133.926 32.4322 134.821 31.5368 134.821 30.4322V23.6696C134.821 22.5651 133.926 21.6696 132.821 21.6696H115.224C114.119 21.6696 113.224 22.5651 113.224 23.6696V30.4322C113.224 31.5368 114.119 32.4322 115.224 32.4322H132.821ZM91.5542 12.8348C91.5542 11.7303 92.4496 10.8348 93.5542 10.8348H154.563C155.668 10.8348 156.563 11.7302 156.563 12.8348V30.6489C156.563 31.7535 155.668 32.6489 154.563 32.6489H136.893C135.789 32.6489 134.893 33.5443 134.893 34.6489V41.3393C134.893 42.4438 135.789 43.3393 136.893 43.3393H154.563C155.668 43.3393 156.563 44.2347 156.563 45.3393V52.1741C156.563 53.2787 155.668 54.1741 154.563 54.1741H93.5542C92.4496 54.1741 91.5542 53.2787 91.5542 52.1741V12.8348Z" fill="#D3FF0D"/>
<path d="M183.108 8.83482C183.108 9.93938 184.004 10.8348 185.108 10.8348H213.613C214.717 10.8348 215.613 11.7302 215.613 12.8348V19.6696C215.613 20.7742 214.717 21.6696 213.613 21.6696H185.108C184.004 21.6696 183.108 22.5651 183.108 23.6696V41.3393C183.108 42.4438 184.004 43.3393 185.108 43.3393H213.613C214.717 43.3393 215.613 44.2347 215.613 45.3393V52.1741C215.613 53.2787 214.717 54.1741 213.613 54.1741H163.439C162.334 54.1741 161.439 53.2787 161.439 52.1741V10.8309V10.8348V2C161.439 0.895432 162.334 0 163.439 0H181.108C182.213 0 183.108 0.895431 183.108 2V8.83482Z" fill="#D3FF0D"/>
<path d="M261.756 32.4322C262.86 32.4322 263.756 31.5368 263.756 30.4322V23.6696C263.756 22.5651 262.86 21.6696 261.756 21.6696H244.158C243.054 21.6696 242.158 22.5651 242.158 23.6696V30.4322C242.158 31.5368 243.054 32.4322 244.158 32.4322H261.756ZM220.489 12.8348C220.489 11.7303 221.384 10.8348 222.489 10.8348H283.497C284.602 10.8348 285.497 11.7302 285.497 12.8348V30.6489C285.497 31.7535 284.602 32.6489 283.497 32.6489H265.828C264.723 32.6489 263.828 33.5443 263.828 34.6489V41.3393C263.828 42.4438 264.723 43.3393 265.828 43.3393H283.497C284.602 43.3393 285.497 44.2347 285.497 45.3393V52.1741C285.497 53.2787 284.602 54.1741 283.497 54.1741H222.489C221.384 54.1741 220.489 53.2787 220.489 52.1741V12.8348Z" fill="#D3FF0D"/>
<path d="M332.068 12.8348C332.068 11.7302 332.963 10.8348 334.068 10.8348H395.076C396.181 10.8348 397.076 11.7302 397.076 12.8348V19.6696C397.076 20.7742 396.181 21.6696 395.076 21.6696H355.737C354.633 21.6696 353.737 22.5651 353.737 23.6696V52.1741C353.737 53.2787 352.842 54.1741 351.737 54.1741H334.068C332.963 54.1741 332.068 53.2787 332.068 52.1741V12.8348Z" fill="#D3FF0D"/>
<path d="M10.9029 73.8123H16.3544V87.4409H0V76.538H10.9029V73.8123ZM5.45146 84.7152H10.9029V79.2637H5.45146V84.7152Z" fill="#728810"/>
<path d="M29.9648 81.9713V79.2637H24.5316V81.9713H29.9648ZM19.0801 76.538H35.4345V82.0258H29.983V84.7152H35.4345V87.4409H19.0801V76.538Z" fill="#728810"/>
<path d="M43.6116 79.2819V84.7152H49.0631V79.2819H43.6116ZM43.6116 76.538H54.5146V87.4409H38.1602V79.2637H43.6116V76.538Z" fill="#728810"/>
<path d="M68.1432 73.8123H73.5947V87.4409H57.2403V76.538H68.1432V73.8123ZM62.6917 84.7152H68.1432V79.2637H62.6917V84.7152Z" fill="#728810"/>
<path d="M106.303 79.2637H98.1262V81.9895H89.949V76.538H106.303V79.2637ZM89.949 84.7152H98.1262V81.9895H106.303V87.4409H89.949V84.7152Z" fill="#728810"/>
<path d="M109.029 73.8123H114.481V76.538H109.029V73.8123ZM109.029 79.2637H114.481V87.4409H109.029V79.2637Z" fill="#728810"/>
<path d="M117.206 76.538H139.012V87.4409H133.561V79.2637H130.835V87.4409H125.383V79.2637H122.658V87.4409H117.206V76.538Z" fill="#728810"/>
<path d="M141.738 76.538H158.092V87.4409H147.189V90.1667H141.738V76.538ZM147.189 84.7152H152.641V79.2637H147.189V84.7152Z" fill="#728810"/>
<path d="M160.818 73.8123H166.269V87.4409H160.818V73.8123Z" fill="#728810"/>
<path d="M179.88 81.9713V79.2637H174.447V81.9713H179.88ZM168.995 76.538H185.35V82.0258H179.898V84.7152H185.35V87.4409H168.995V76.538Z" fill="#728810"/>
<path d="M212.607 73.8123H218.058V87.4409H201.704V76.538H212.607V73.8123ZM207.155 84.7152H212.607V79.2637H207.155V84.7152Z" fill="#728810"/>
<path d="M226.235 76.538H237.138V87.4409H220.784V73.8123H226.235V76.538ZM226.235 84.7152H231.687V79.2637H226.235V84.7152Z" fill="#728810"/>
<path d="M253.493 76.538H275.299V87.4409H269.847V79.2637H267.121V87.4409H261.67V79.2637H258.944V87.4409H253.493V76.538Z" fill="#728810"/>
<path d="M288.909 81.9713V79.2637H283.476V81.9713H288.909ZM278.024 76.538H294.379V82.0258H288.927V84.7152H294.379V87.4409H278.024V76.538Z" fill="#728810"/>
<path d="M305.282 76.538H313.459V79.2637H305.282V84.7152H313.459V87.4409H299.83V79.2637H297.104V76.538H299.83V73.8123H305.282V76.538Z" fill="#728810"/>
<path d="M327.069 81.9713V79.2637H321.636V81.9713H327.069ZM316.184 76.538H332.539V82.0258H327.087V84.7152H332.539V87.4409H316.184V76.538Z" fill="#728810"/>
<path d="M335.265 76.538H351.619V79.2637H340.716V87.4409H335.265V76.538Z" fill="#728810"/>
</svg>
