<svg width="1920" height="1080" viewBox="0 0 1920 1080" fill="none" xmlns="http://www.w3.org/2000/svg">
<rect width="1920" height="1080" fill="#121212"/>
<rect width="1920" height="1080" fill="url(#paint0_radial_1_34)" fill-opacity="0.04"/>
<path d="M1108.8 983.995H1116.7V1003.75H1093V987.946H1108.8V983.995ZM1100.9 999.798H1108.8V991.896H1100.9V999.798ZM1136.43 995.821V991.896H1128.56V995.821H1136.43ZM1120.66 987.946H1144.36V995.9H1136.46V999.798H1144.36V1003.75H1120.66V987.946ZM1172.02 991.896H1160.16V995.847H1148.31V987.946H1172.02V991.896ZM1148.31 999.798H1160.16V995.847H1172.02V1003.75H1148.31V999.798ZM1175.97 983.995H1183.87V987.946H1175.97V983.995ZM1175.97 991.896H1183.87V1003.75H1175.97V991.896ZM1187.82 987.946H1211.52V1003.75H1207.57V1011.65H1195.72V1007.7H1199.67V1003.75H1187.82V987.946ZM1195.72 999.798H1203.62V991.896H1195.72V999.798ZM1215.47 987.946H1239.18V1003.75H1231.28V991.896H1223.37V1003.75H1215.47V987.946ZM1258.91 995.821V991.896H1251.03V995.821H1258.91ZM1243.13 987.946H1266.83V995.9H1258.93V999.798H1266.83V1003.75H1243.13V987.946ZM1286.59 983.995H1294.49V1003.75H1270.78V987.946H1286.59V983.995ZM1278.69 999.798H1286.59V991.896H1278.69V999.798ZM1341.9 987.946H1349.8V1003.75H1318.19V987.946H1326.09V999.798H1330.05V987.946H1337.95V999.798H1341.9V987.946ZM1353.75 983.995H1361.65V987.946H1353.75V983.995ZM1353.75 991.896H1361.65V1003.75H1353.75V991.896ZM1377.45 987.946H1389.31V991.896H1377.45V999.798H1389.31V1003.75H1369.55V991.896H1365.6V987.946H1369.55V983.995H1377.45V987.946ZM1401.16 987.946H1416.96V1003.75H1409.06V991.896H1401.16V1003.75H1393.26V983.995H1401.16V987.946ZM1440.67 983.995H1448.57V1003.75H1440.67V983.995ZM1452.52 987.946H1476.22V1003.75H1452.52V987.946ZM1460.42 999.798H1468.32V991.896H1460.42V999.798ZM1495.98 987.946H1503.88V995.847H1499.93V999.798H1495.98V1003.75H1488.08V999.798H1484.12V995.847H1480.17V987.946H1488.08V995.847H1495.98V987.946ZM1523.61 995.821V991.896H1515.73V995.821H1523.61ZM1507.83 987.946H1531.53V995.9H1523.63V999.798H1531.53V1003.75H1507.83V987.946ZM1563.14 987.946H1578.94V1003.75H1555.24V983.995H1563.14V987.946ZM1563.14 999.798H1571.04V991.896H1563.14V999.798ZM1598.7 987.946H1606.6V1011.65H1590.8V1007.7H1598.7V1003.75H1582.89V987.946H1590.8V999.798H1598.7V987.946Z" fill="white" fill-opacity="0.26"/>
<g clip-path="url(#clip0_1_34)">
<path d="M1644.57 996.047H1636.09V987.729H1627.6V996.047H1631.84V1000.21H1636.09V1004.37H1644.57V1000.21H1648.81V996.047H1653.05V987.729H1644.57V996.047Z" fill="#D3FF0D"/>
<path d="M1665.77 992.005H1674.25V1000.33H1665.77V992.005H1657.29V1004.49H1682.74V987.845H1665.77V992.005Z" fill="#D3FF0D"/>
<path d="M1695.47 983.566H1686.99V1004.37H1695.47V983.566Z" fill="#D3FF0D"/>
<path d="M1716.67 987.725H1699.7V1004.37H1725.15V983.566H1716.67V987.725ZM1716.67 1000.21H1708.19V991.888H1716.67V1000.21Z" fill="#D3FF0D"/>
<path d="M1737.87 996.045H1729.39V1004.36H1737.87V996.045Z" fill="#D3FF0D"/>
<path d="M1750.6 983.566H1742.12V1004.37H1750.6V983.566Z" fill="#D3FF0D"/>
<path d="M1763.33 991.888H1771.81V1000.21H1763.33V991.888H1754.85V1004.37H1780.29V987.729H1763.33V991.888Z" fill="#D3FF0D"/>
<path d="M1793.01 983.566H1784.53V1004.37H1809.98V987.725H1793.01V983.566ZM1801.5 991.884V1000.2H1793.02V991.884H1801.5Z" fill="#D3FF0D"/>
<path d="M1814.22 1000.21V1004.37H1839.67V996.045H1826.95V1000.21H1814.22Z" fill="#D3FF0D"/>
<path d="M1814.22 996.047H1826.95V991.888H1839.67V987.729H1814.22V996.047Z" fill="#D3FF0D"/>
<path d="M1682.41 980.683H1665.6V984.42H1682.41V980.683Z" fill="#D3FF0D"/>
</g>
<path fill-rule="evenodd" clip-rule="evenodd" d="M415.138 68.9785C415.138 70.0831 414.242 70.9785 413.138 70.9785H405.887C404.782 70.9785 403.887 71.8739 403.887 72.9785V116.392C403.887 117.496 404.782 118.392 405.887 118.392H413.138C414.242 118.392 415.138 119.287 415.138 120.392V122.53C415.138 123.635 414.242 124.53 413.138 124.53H352.128C351.023 124.53 350.128 123.635 350.128 122.53V120.392C350.128 119.287 351.023 118.392 352.128 118.392H358.486C359.591 118.392 360.486 117.496 360.486 116.392V104.959C360.486 103.854 359.591 102.959 358.486 102.959H352.128C351.023 102.959 350.128 102.064 350.128 100.959V98.9131C350.128 97.8085 351.023 96.9131 352.128 96.9131H358.486C359.591 96.9131 360.486 96.0177 360.486 94.9131V72.9785C360.486 71.8739 359.591 70.9785 358.486 70.9785H352.128C351.023 70.9785 350.128 70.0831 350.128 68.9785V67.5664C350.128 66.4618 351.023 65.5664 352.128 65.5664H413.138C414.242 65.5664 415.138 66.4618 415.138 67.5664V68.9785ZM371.798 105.353C371.798 106.457 372.693 107.353 373.798 107.353H391.468C392.572 107.353 393.468 106.457 393.468 105.353V85.0596C393.468 83.955 392.572 83.0596 391.468 83.0596H373.798C372.693 83.0596 371.798 83.955 371.798 85.0596V105.353Z" fill="#728810"/>
<path d="M73.3965 74.7235C73.3965 73.6189 74.292 72.7235 75.3965 72.7235H158.075C159.18 72.7235 160.075 73.6189 160.075 74.7235V114.063C160.075 115.167 159.18 116.063 158.075 116.063H140.405C139.301 116.063 138.405 115.167 138.405 114.063V85.5583C138.405 84.4537 137.51 83.5583 136.405 83.5583H129.571C128.466 83.5583 127.571 84.4537 127.571 85.5583V114.063C127.571 115.167 126.675 116.063 125.571 116.063H107.901C106.796 116.063 105.901 115.167 105.901 114.063V85.5583C105.901 84.4537 105.006 83.5583 103.901 83.5583H97.0662C95.9616 83.5583 95.0662 84.4537 95.0662 85.5583V114.063C95.0662 115.167 94.1707 116.063 93.0662 116.063H75.3965C74.292 116.063 73.3965 115.167 73.3965 114.063V74.7235Z" fill="#D3FF0D"/>
<path d="M206.218 94.3209C207.322 94.3209 208.218 93.4255 208.218 92.3209V85.5583C208.218 84.4537 207.322 83.5583 206.218 83.5583H188.62C187.516 83.5583 186.62 84.4537 186.62 85.5583V92.3209C186.62 93.4255 187.516 94.3209 188.62 94.3209H206.218ZM164.951 74.7235C164.951 73.6189 165.846 72.7235 166.951 72.7235H227.96C229.064 72.7235 229.96 73.6189 229.96 74.7235V92.5376C229.96 93.6422 229.064 94.5376 227.96 94.5376H210.29C209.185 94.5376 208.29 95.433 208.29 96.5376V103.228C208.29 104.333 209.185 105.228 210.29 105.228H227.96C229.064 105.228 229.96 106.123 229.96 107.228V114.063C229.96 115.167 229.064 116.063 227.96 116.063H166.951C165.846 116.063 164.951 115.167 164.951 114.063V74.7235Z" fill="#D3FF0D"/>
<path d="M256.505 70.7235C256.505 71.8281 257.4 72.7235 258.505 72.7235H287.009C288.114 72.7235 289.009 73.6189 289.009 74.7235V81.5583C289.009 82.6629 288.114 83.5583 287.009 83.5583H258.505C257.4 83.5583 256.505 84.4537 256.505 85.5583V103.228C256.505 104.333 257.4 105.228 258.505 105.228H287.009C288.114 105.228 289.009 106.123 289.009 107.228V114.063C289.009 115.167 288.114 116.063 287.009 116.063H236.835C235.731 116.063 234.835 115.167 234.835 114.063V72.7196V72.7235V63.8887C234.835 62.7841 235.731 61.8887 236.835 61.8887H254.505C255.609 61.8887 256.505 62.7841 256.505 63.8887V70.7235Z" fill="#D3FF0D"/>
<path d="M335.152 94.3209C336.257 94.3209 337.152 93.4255 337.152 92.3209V85.5583C337.152 84.4537 336.257 83.5583 335.152 83.5583H317.555C316.45 83.5583 315.555 84.4537 315.555 85.5583V92.3209C315.555 93.4255 316.45 94.3209 317.555 94.3209H335.152ZM293.885 74.7235C293.885 73.6189 294.781 72.7235 295.885 72.7235H356.894C357.999 72.7235 358.894 73.6189 358.894 74.7235V92.5376C358.894 93.6422 357.999 94.5376 356.894 94.5376H339.224C338.12 94.5376 337.224 95.433 337.224 96.5376V103.228C337.224 104.333 338.12 105.228 339.224 105.228H356.894C357.999 105.228 358.894 106.123 358.894 107.228V114.063C358.894 115.167 357.999 116.063 356.894 116.063H295.885C294.781 116.063 293.885 115.167 293.885 114.063V74.7235Z" fill="#D3FF0D"/>
<path d="M405.464 74.7235C405.464 73.6189 406.36 72.7235 407.464 72.7235H468.473C469.578 72.7235 470.473 73.6189 470.473 74.7235V81.5583C470.473 82.6629 469.578 83.5583 468.473 83.5583H429.134C428.029 83.5583 427.134 84.4537 427.134 85.5583V114.063C427.134 115.167 426.238 116.063 425.134 116.063H407.464C406.36 116.063 405.464 115.167 405.464 114.063V74.7235Z" fill="#D3FF0D"/>
<path d="M84.2995 135.701H89.7509V149.33H73.3965V138.427H84.2995V135.701ZM78.848 146.604H84.2995V141.152H78.848V146.604Z" fill="#728810"/>
<path d="M103.361 143.86V141.152H97.9281V143.86H103.361ZM92.4766 138.427H108.831V143.914H103.38V146.604H108.831V149.33H92.4766V138.427Z" fill="#728810"/>
<path d="M117.008 141.171V146.604H122.46V141.171H117.008ZM117.008 138.427H127.911V149.33H111.557V141.152H117.008V138.427Z" fill="#728810"/>
<path d="M141.54 135.701H146.991V149.33H130.637V138.427H141.54V135.701ZM136.088 146.604H141.54V141.152H136.088V146.604Z" fill="#728810"/>
<path d="M179.7 141.152H171.523V143.878H163.346V138.427H179.7V141.152ZM163.346 146.604H171.523V143.878H179.7V149.33H163.346V146.604Z" fill="#728810"/>
<path d="M182.426 135.701H187.877V138.427H182.426V135.701ZM182.426 141.152H187.877V149.33H182.426V141.152Z" fill="#728810"/>
<path d="M190.603 138.427H212.409V149.33H206.957V141.152H204.232V149.33H198.78V141.152H196.054V149.33H190.603V138.427Z" fill="#728810"/>
<path d="M215.134 138.427H231.489V149.33H220.586V152.055H215.134V138.427ZM220.586 146.604H226.037V141.152H220.586V146.604Z" fill="#728810"/>
<path d="M234.215 135.701H239.666V149.33H234.215V135.701Z" fill="#728810"/>
<path d="M253.276 143.86V141.152H247.843V143.86H253.276ZM242.392 138.427H258.746V143.914H253.295V146.604H258.746V149.33H242.392V138.427Z" fill="#728810"/>
<path d="M286.003 135.701H291.455V149.33H275.1V138.427H286.003V135.701ZM280.552 146.604H286.003V141.152H280.552V146.604Z" fill="#728810"/>
<path d="M299.632 138.427H310.535V149.33H294.181V135.701H299.632V138.427ZM299.632 146.604H305.083V141.152H299.632V146.604Z" fill="#728810"/>
<path d="M326.889 138.427H348.695V149.33H343.244V141.152H340.518V149.33H335.066V141.152H332.341V149.33H326.889V138.427Z" fill="#728810"/>
<path d="M362.306 143.86V141.152H356.872V143.86H362.306ZM351.421 138.427H367.775V143.914H362.324V146.604H367.775V149.33H351.421V138.427Z" fill="#728810"/>
<path d="M378.678 138.427H386.855V141.152H378.678V146.604H386.855V149.33H373.227V141.152H370.501V138.427H373.227V135.701H378.678V138.427Z" fill="#728810"/>
<path d="M400.466 143.86V141.152H395.032V143.86H400.466ZM389.581 138.427H405.935V143.914H400.484V146.604H405.935V149.33H389.581V138.427Z" fill="#728810"/>
<path d="M408.661 138.427H425.015V141.152H414.113V149.33H408.661V138.427Z" fill="#728810"/>
<path d="M90.0883 973.101H98.4341V993.966H73.3965V977.274H90.0883V973.101ZM81.7424 989.793H90.0883V981.447H81.7424V989.793ZM123.472 973.101V977.274H127.645V989.793H123.472V993.966H102.607V973.101H123.472ZM110.953 989.793H119.299V985.62H110.953V989.793ZM119.299 981.447V977.274H110.953V981.447H119.299ZM177.72 981.447H165.201V985.62H152.682V977.274H177.72V981.447ZM152.682 989.793H165.201V985.62H177.72V993.966H152.682V989.793ZM181.893 977.274H206.93V993.966H190.239V998.139H181.893V977.274ZM190.239 989.793H198.584V981.447H190.239V989.793ZM211.103 973.101H219.449V993.966H211.103V973.101ZM252.832 981.475V989.793H261.178V981.475H252.832ZM252.832 977.274H269.524V993.966H244.487V981.447H252.832V977.274ZM273.697 977.274H298.735V993.966H282.043V998.139H273.697V977.274ZM282.043 989.793H290.389V981.447H282.043V989.793ZM302.908 977.274H327.945V993.966H311.253V998.139H302.908V977.274ZM311.253 989.793H319.599V981.447H311.253V989.793ZM332.118 977.274H357.156V981.447H340.464V993.966H332.118V977.274ZM361.329 977.274H386.366V993.966H361.329V977.274ZM369.675 989.793H378.02V981.447H369.675V989.793ZM403.058 977.274H415.577V981.447H411.404V989.793H415.577V993.966H403.058V989.793H398.885V993.966H390.539V989.793H394.712V981.447H390.539V977.274H398.885V981.447H403.058V977.274ZM419.75 973.101H428.095V977.274H419.75V973.101ZM419.75 981.447H428.095V993.966H419.75V981.447ZM432.268 977.274H465.652V993.966H457.306V981.447H453.133V993.966H444.787V981.447H440.614V993.966H432.268V977.274ZM478.171 981.475V989.793H486.517V981.475H478.171ZM478.171 977.274H494.862V993.966H469.825V981.447H478.171V977.274ZM511.554 977.274H524.073V981.447H511.554V989.793H524.073V993.966H503.208V981.447H499.035V977.274H503.208V973.101H511.554V977.274ZM544.91 985.592V981.447H536.592V985.592H544.91ZM528.246 977.274H553.283V985.676H544.938V989.793H553.283V993.966H528.246V977.274Z" fill="white"/>
<rect x="1466.75" y="75.2657" width="175.604" height="63.4125" rx="31.7062" fill="#D3FF0D" fill-opacity="0.15"/>
<rect x="1466.75" y="75.2657" width="175.604" height="63.4125" rx="31.7062" stroke="#D3FF0D" stroke-width="0.812981"/>
<path d="M1496.42 101.139H1516.78V114.709H1503.21V118.101H1496.42V101.139ZM1503.21 111.316H1509.99V104.531H1503.21V111.316ZM1526.95 104.554V111.316H1533.74V104.554H1526.95ZM1526.95 101.139H1540.52V114.709H1520.17V104.531H1526.95V101.139ZM1557.49 101.139H1564.27V114.709H1543.92V101.139H1550.7V111.316H1557.49V101.139ZM1588.02 104.531H1577.84V107.924H1567.67V101.139H1588.02V104.531ZM1567.67 111.316H1577.84V107.924H1588.02V114.709H1567.67V111.316ZM1604.96 107.901V104.531H1598.2V107.901H1604.96ZM1591.41 101.139H1611.77V107.969H1604.98V111.316H1611.77V114.709H1591.41V101.139Z" fill="white"/>
<rect x="1663.49" y="75.2657" width="175.604" height="63.4125" rx="31.7062" fill="#D3FF0D" fill-opacity="0.15"/>
<rect x="1663.49" y="75.2657" width="175.604" height="63.4125" rx="31.7062" stroke="#D3FF0D" stroke-width="0.812981"/>
<path d="M1693.16 101.139H1713.52V104.531H1699.95V114.709H1693.16V101.139ZM1730.46 107.901V104.531H1723.7V107.901H1730.46ZM1716.91 101.139H1737.27V107.969H1730.48V111.316H1737.27V114.709H1716.91V101.139ZM1761.01 104.531H1750.84V107.924H1740.66V101.139H1761.01V104.531ZM1740.66 111.316H1750.84V107.924H1761.01V114.709H1740.66V111.316ZM1777.95 107.901V104.531H1771.19V107.901H1777.95ZM1764.41 101.139H1784.76V107.969H1777.98V111.316H1784.76V114.709H1764.41V101.139ZM1798.33 101.139H1808.51V104.531H1798.33V111.316H1808.51V114.709H1791.55V104.531H1788.15V101.139H1791.55V97.7462H1798.33V101.139Z" fill="white"/>
<g filter="url(#filter0_d_1_34)">
<path d="M654.453 296.109H936.323V343.087H748.41V390.065H936.323V531H654.453V484.022H842.366V437.044H654.453V296.109ZM1265.17 343.087H1077.26V390.065H1265.17V531H983.301V296.109H1265.17V343.087ZM1171.21 437.044H1077.26V484.022H1171.21V437.044Z" fill="#D3FF0D"/>
<path d="M655.127 589.496H685.732V599.698H680.631V604.798H675.531V609.899H670.43V615H660.228V609.899H665.329V604.798H670.43V599.698H675.531V594.597H655.127V589.496ZM690.833 589.496H721.438V615H690.833V589.496ZM701.034 609.899H711.236V594.597H701.034V609.899Z" fill="#FF820D"/>
<path d="M772.446 589.496H782.647V615H752.042V594.597H772.446V589.496ZM762.244 609.899H772.446V599.698H762.244V609.899ZM813.252 589.496V594.597H818.353V609.899H813.252V615H787.748V589.496H813.252ZM797.95 609.899H808.151V604.798H797.95V609.899ZM808.151 599.698V594.597H797.95V599.698H808.151Z" fill="#D3FF0D" fill-opacity="0.5"/>
<path d="M1096.9 589.496H1127.5V615H1096.9V609.899H1117.3V604.798H1096.9V589.496ZM1107.1 599.698H1117.3V594.597H1107.1V599.698ZM1132.61 589.496H1163.21V594.597H1142.81V599.698H1163.21V615H1132.61V609.899H1153.01V604.798H1132.61V589.496Z" fill="#FF350D"/>
<path d="M1214.22 589.496H1224.42V615H1193.81V594.597H1214.22V589.496ZM1204.02 609.899H1214.22V599.698H1204.02V609.899ZM1255.02 589.496V594.597H1260.13V609.899H1255.02V615H1229.52V589.496H1255.02ZM1239.72 609.899H1249.92V604.798H1239.72V609.899ZM1249.92 599.698V594.597H1239.72V599.698H1249.92Z" fill="#D3FF0D" fill-opacity="0.5"/>
<path d="M659.623 665.097V644.694H654.523V639.593H669.825V665.097H659.623ZM674.926 644.694H715.732V665.097H705.531V649.795H700.43V665.097H690.228V649.795H685.127V665.097H674.926V644.694ZM756.538 649.829V659.996H766.74V649.829H756.538ZM756.538 644.694H776.942V665.097H746.337V649.795H756.538V644.694ZM802.446 644.694H812.647V654.895H807.546V659.996H802.446V665.097H792.244V659.996H787.143V654.895H782.042V644.694H792.244V654.895H802.446V644.694ZM817.748 644.694H848.353V665.097H843.252V675.299H827.95V670.198H833.05V665.097H817.748V644.694ZM827.95 659.996H838.151V649.795H827.95V659.996Z" fill="white"/>
<path d="M1071.4 665.097V644.694H1066.3V639.593H1081.6V665.097H1071.4ZM1096.9 644.694H1117.3V665.097H1107.1V649.795H1096.9V665.097H1086.7V639.593H1096.9V644.694ZM1147.91 644.694H1188.71V665.097H1178.51V649.795H1173.41V665.097H1163.21V649.795H1158.11V665.097H1147.91V644.694ZM1204.02 649.829V659.996H1214.22V649.829H1204.02ZM1204.02 644.694H1224.42V665.097H1193.81V649.795H1204.02V644.694ZM1244.82 644.694H1260.13V649.795H1255.02V659.996H1260.13V665.097H1244.82V659.996H1239.72V665.097H1229.52V659.996H1234.62V649.795H1229.52V644.694H1239.72V649.795H1244.82V644.694Z" fill="white"/>
<line x1="960.5" y1="590.083" x2="960.5" y2="665.097" stroke="#D3FF0D"/>
</g>
<line x1="78" y1="786.014" x2="78" y2="846.463" stroke="#D3FF0D" stroke-width="10" stroke-linecap="round"/>
<line x1="102" y1="821.239" x2="102" y2="846.463" stroke="#D3FF0D" stroke-width="10" stroke-linecap="round"/>
<line x1="126" y1="786.014" x2="126" y2="846.463" stroke="#D3FF0D" stroke-width="10" stroke-linecap="round"/>
<line x1="150" y1="714" x2="150" y2="846.463" stroke="#FF350D" stroke-width="10" stroke-linecap="round"/>
<line x1="174" y1="786.014" x2="174" y2="846.463" stroke="#D3FF0D" stroke-width="10" stroke-linecap="round"/>
<line x1="198" y1="754.704" x2="198" y2="846.463" stroke="#FF820D" stroke-width="10" stroke-linecap="round"/>
<line x1="222" y1="821.239" x2="222" y2="846.463" stroke="#D3FF0D" stroke-width="10" stroke-linecap="round"/>
<line x1="246" y1="821.239" x2="246" y2="846.463" stroke="#D3FF0D" stroke-opacity="0.09" stroke-width="10" stroke-linecap="round"/>
<line x1="270" y1="821.239" x2="270" y2="846.463" stroke="#D3FF0D" stroke-opacity="0.09" stroke-width="10" stroke-linecap="round"/>
<line x1="294" y1="821.239" x2="294" y2="846.463" stroke="#D3FF0D" stroke-opacity="0.09" stroke-width="10" stroke-linecap="round"/>
<line x1="318" y1="821.239" x2="318" y2="846.463" stroke="#D3FF0D" stroke-opacity="0.09" stroke-width="10" stroke-linecap="round"/>
<line x1="342" y1="821.239" x2="342" y2="846.463" stroke="#D3FF0D" stroke-opacity="0.09" stroke-width="10" stroke-linecap="round"/>
<line x1="366" y1="821.239" x2="366" y2="846.463" stroke="#D3FF0D" stroke-opacity="0.09" stroke-width="10" stroke-linecap="round"/>
<line x1="390" y1="821.239" x2="390" y2="846.463" stroke="#D3FF0D" stroke-opacity="0.09" stroke-width="10" stroke-linecap="round"/>
<line x1="414" y1="821.239" x2="414" y2="846.463" stroke="#D3FF0D" stroke-opacity="0.09" stroke-width="10" stroke-linecap="round"/>
<line x1="438" y1="821.239" x2="438" y2="846.463" stroke="#D3FF0D" stroke-opacity="0.09" stroke-width="10" stroke-linecap="round"/>
<line x1="462" y1="821.239" x2="462" y2="846.463" stroke="#D3FF0D" stroke-opacity="0.09" stroke-width="10" stroke-linecap="round"/>
<line x1="486" y1="821.239" x2="486" y2="846.463" stroke="#D3FF0D" stroke-opacity="0.09" stroke-width="10" stroke-linecap="round"/>
<line x1="510" y1="821.239" x2="510" y2="846.463" stroke="#D3FF0D" stroke-opacity="0.09" stroke-width="10" stroke-linecap="round"/>
<line x1="534" y1="821.239" x2="534" y2="846.463" stroke="#D3FF0D" stroke-opacity="0.09" stroke-width="10" stroke-linecap="round"/>
<line x1="558" y1="821.239" x2="558" y2="846.463" stroke="#D3FF0D" stroke-opacity="0.09" stroke-width="10" stroke-linecap="round"/>
<line x1="582" y1="821.239" x2="582" y2="846.463" stroke="#D3FF0D" stroke-opacity="0.09" stroke-width="10" stroke-linecap="round"/>
<line x1="606" y1="821.239" x2="606" y2="846.463" stroke="#D3FF0D" stroke-opacity="0.09" stroke-width="10" stroke-linecap="round"/>
<line x1="630" y1="821.239" x2="630" y2="846.463" stroke="#D3FF0D" stroke-opacity="0.09" stroke-width="10" stroke-linecap="round"/>
<line x1="654" y1="821.239" x2="654" y2="846.463" stroke="#D3FF0D" stroke-opacity="0.09" stroke-width="10" stroke-linecap="round"/>
<line x1="678" y1="821.239" x2="678" y2="846.463" stroke="#D3FF0D" stroke-opacity="0.09" stroke-width="10" stroke-linecap="round"/>
<line x1="702" y1="821.239" x2="702" y2="846.463" stroke="#D3FF0D" stroke-opacity="0.09" stroke-width="10" stroke-linecap="round"/>
<line x1="726" y1="821.239" x2="726" y2="846.463" stroke="#D3FF0D" stroke-opacity="0.09" stroke-width="10" stroke-linecap="round"/>
<line x1="750" y1="821.239" x2="750" y2="846.463" stroke="#D3FF0D" stroke-opacity="0.09" stroke-width="10" stroke-linecap="round"/>
<line x1="774" y1="821.239" x2="774" y2="846.463" stroke="#D3FF0D" stroke-opacity="0.09" stroke-width="10" stroke-linecap="round"/>
<line x1="798" y1="821.239" x2="798" y2="846.463" stroke="#D3FF0D" stroke-opacity="0.09" stroke-width="10" stroke-linecap="round"/>
<line x1="822" y1="821.239" x2="822" y2="846.463" stroke="#D3FF0D" stroke-opacity="0.09" stroke-width="10" stroke-linecap="round"/>
<line x1="846" y1="821.239" x2="846" y2="846.463" stroke="#D3FF0D" stroke-opacity="0.09" stroke-width="10" stroke-linecap="round"/>
<line x1="870" y1="821.239" x2="870" y2="846.463" stroke="#D3FF0D" stroke-opacity="0.09" stroke-width="10" stroke-linecap="round"/>
<line x1="894" y1="821.239" x2="894" y2="846.463" stroke="#D3FF0D" stroke-opacity="0.09" stroke-width="10" stroke-linecap="round"/>
<line x1="918" y1="821.239" x2="918" y2="846.463" stroke="#D3FF0D" stroke-opacity="0.09" stroke-width="10" stroke-linecap="round"/>
<line x1="942" y1="821.239" x2="942" y2="846.463" stroke="#D3FF0D" stroke-opacity="0.09" stroke-width="10" stroke-linecap="round"/>
<line x1="966" y1="821.239" x2="966" y2="846.463" stroke="#D3FF0D" stroke-opacity="0.09" stroke-width="10" stroke-linecap="round"/>
<line x1="990" y1="821.239" x2="990" y2="846.463" stroke="#D3FF0D" stroke-opacity="0.09" stroke-width="10" stroke-linecap="round"/>
<line x1="1014" y1="821.239" x2="1014" y2="846.463" stroke="#D3FF0D" stroke-opacity="0.09" stroke-width="10" stroke-linecap="round"/>
<line x1="1038" y1="821.239" x2="1038" y2="846.463" stroke="#D3FF0D" stroke-opacity="0.09" stroke-width="10" stroke-linecap="round"/>
<line x1="1062" y1="821.239" x2="1062" y2="846.463" stroke="#D3FF0D" stroke-opacity="0.09" stroke-width="10" stroke-linecap="round"/>
<line x1="1086" y1="821.239" x2="1086" y2="846.463" stroke="#D3FF0D" stroke-opacity="0.09" stroke-width="10" stroke-linecap="round"/>
<line x1="1110" y1="821.239" x2="1110" y2="846.463" stroke="#D3FF0D" stroke-opacity="0.09" stroke-width="10" stroke-linecap="round"/>
<line x1="1134" y1="821.239" x2="1134" y2="846.463" stroke="#D3FF0D" stroke-opacity="0.09" stroke-width="10" stroke-linecap="round"/>
<line x1="1158" y1="821.239" x2="1158" y2="846.463" stroke="#D3FF0D" stroke-opacity="0.09" stroke-width="10" stroke-linecap="round"/>
<line x1="1182" y1="821.239" x2="1182" y2="846.463" stroke="#D3FF0D" stroke-opacity="0.09" stroke-width="10" stroke-linecap="round"/>
<line x1="1206" y1="821.239" x2="1206" y2="846.463" stroke="#D3FF0D" stroke-opacity="0.09" stroke-width="10" stroke-linecap="round"/>
<line x1="1230" y1="821.239" x2="1230" y2="846.463" stroke="#D3FF0D" stroke-opacity="0.09" stroke-width="10" stroke-linecap="round"/>
<line x1="1254" y1="821.239" x2="1254" y2="846.463" stroke="#D3FF0D" stroke-opacity="0.09" stroke-width="10" stroke-linecap="round"/>
<line x1="1278" y1="821.239" x2="1278" y2="846.463" stroke="#D3FF0D" stroke-opacity="0.09" stroke-width="10" stroke-linecap="round"/>
<line x1="1302" y1="821.239" x2="1302" y2="846.463" stroke="#D3FF0D" stroke-opacity="0.09" stroke-width="10" stroke-linecap="round"/>
<line x1="1326" y1="821.239" x2="1326" y2="846.463" stroke="#D3FF0D" stroke-opacity="0.09" stroke-width="10" stroke-linecap="round"/>
<line x1="1350" y1="821.239" x2="1350" y2="846.463" stroke="#D3FF0D" stroke-opacity="0.09" stroke-width="10" stroke-linecap="round"/>
<line x1="1374" y1="821.239" x2="1374" y2="846.463" stroke="#D3FF0D" stroke-opacity="0.09" stroke-width="10" stroke-linecap="round"/>
<line x1="1398" y1="821.239" x2="1398" y2="846.463" stroke="#D3FF0D" stroke-opacity="0.09" stroke-width="10" stroke-linecap="round"/>
<line x1="1422" y1="821.239" x2="1422" y2="846.463" stroke="#D3FF0D" stroke-opacity="0.09" stroke-width="10" stroke-linecap="round"/>
<line x1="1446" y1="821.239" x2="1446" y2="846.463" stroke="#D3FF0D" stroke-opacity="0.09" stroke-width="10" stroke-linecap="round"/>
<line x1="1470" y1="821.239" x2="1470" y2="846.463" stroke="#D3FF0D" stroke-opacity="0.09" stroke-width="10" stroke-linecap="round"/>
<line x1="1494" y1="821.239" x2="1494" y2="846.463" stroke="#D3FF0D" stroke-opacity="0.09" stroke-width="10" stroke-linecap="round"/>
<line x1="1518" y1="821.239" x2="1518" y2="846.463" stroke="#D3FF0D" stroke-opacity="0.09" stroke-width="10" stroke-linecap="round"/>
<line x1="1542" y1="821.239" x2="1542" y2="846.463" stroke="#D3FF0D" stroke-opacity="0.09" stroke-width="10" stroke-linecap="round"/>
<line x1="1566" y1="821.239" x2="1566" y2="846.463" stroke="#D3FF0D" stroke-opacity="0.09" stroke-width="10" stroke-linecap="round"/>
<line x1="1590" y1="821.239" x2="1590" y2="846.463" stroke="#D3FF0D" stroke-opacity="0.09" stroke-width="10" stroke-linecap="round"/>
<line x1="1614" y1="821.239" x2="1614" y2="846.463" stroke="#D3FF0D" stroke-opacity="0.09" stroke-width="10" stroke-linecap="round"/>
<line x1="1638" y1="821.239" x2="1638" y2="846.463" stroke="#D3FF0D" stroke-opacity="0.09" stroke-width="10" stroke-linecap="round"/>
<line x1="1662" y1="821.239" x2="1662" y2="846.463" stroke="#D3FF0D" stroke-opacity="0.09" stroke-width="10" stroke-linecap="round"/>
<line x1="1686" y1="821.239" x2="1686" y2="846.463" stroke="#D3FF0D" stroke-opacity="0.09" stroke-width="10" stroke-linecap="round"/>
<line x1="1710" y1="821.239" x2="1710" y2="846.463" stroke="#D3FF0D" stroke-opacity="0.09" stroke-width="10" stroke-linecap="round"/>
<line x1="1734" y1="821.239" x2="1734" y2="846.463" stroke="#D3FF0D" stroke-opacity="0.09" stroke-width="10" stroke-linecap="round"/>
<line x1="1758" y1="821.239" x2="1758" y2="846.463" stroke="#D3FF0D" stroke-opacity="0.09" stroke-width="10" stroke-linecap="round"/>
<line x1="1782" y1="821.239" x2="1782" y2="846.463" stroke="#D3FF0D" stroke-opacity="0.09" stroke-width="10" stroke-linecap="round"/>
<line x1="1806" y1="821.239" x2="1806" y2="846.463" stroke="#D3FF0D" stroke-opacity="0.09" stroke-width="10" stroke-linecap="round"/>
<line x1="1830" y1="821.239" x2="1830" y2="846.463" stroke="#D3FF0D" stroke-opacity="0.09" stroke-width="10" stroke-linecap="round"/>
<line x1="1854" y1="821.239" x2="1854" y2="846.463" stroke="#D3FF0D" stroke-opacity="0.09" stroke-width="10" stroke-linecap="round"/>
<path d="M92.769 891.548H79.854V894.777H92.769V904.463H73.3965V888.319H92.769V891.548ZM86.3115 898.006H79.854V901.234H86.3115V898.006ZM95.9978 888.319H115.37V904.463H95.9978V888.319ZM102.455 901.234H108.913V891.548H102.455V901.234ZM118.599 891.548H144.429V904.463H137.972V894.777H134.743V904.463H128.285V894.777H125.057V904.463H118.599V891.548ZM147.658 888.319H154.115V891.548H147.658V888.319ZM147.658 894.777H154.115V904.463H147.658V894.777ZM157.344 891.548H176.717V904.463H170.259V894.777H163.802V904.463H157.344V891.548ZM196.089 888.319H202.547V904.463H196.089V888.319ZM205.775 891.548H225.148V904.463H205.775V891.548ZM212.233 901.234H218.69V894.777H212.233V901.234ZM228.377 891.548H247.749V904.463H244.52V910.921H234.834V907.692H238.063V904.463H228.377V891.548ZM234.834 901.234H241.292V894.777H234.834V901.234Z" fill="white"/>
<path d="M128.653 667.953H148.026V684.097H128.653V680.868H141.568V677.639H128.653V667.953ZM135.111 674.411H141.568V671.182H135.111V674.411ZM151.254 667.953H170.627V671.182H157.712V674.411H170.627V684.097H151.254V680.868H164.169V677.639H151.254V667.953Z" fill="#FF350D"/>
<defs>
<filter id="filter0_d_1_34" x="636.9" y="235.9" width="646.2" height="460.499" filterUnits="userSpaceOnUse" color-interpolation-filters="sRGB">
<feFlood flood-opacity="0" result="BackgroundImageFix"/>
<feColorMatrix in="SourceAlpha" type="matrix" values="0 0 0 0 0 0 0 0 0 0 0 0 0 0 0 0 0 0 127 0" result="hardAlpha"/>
<feOffset dy="4"/>
<feGaussianBlur stdDeviation="8.55"/>
<feComposite in2="hardAlpha" operator="out"/>
<feColorMatrix type="matrix" values="0 0 0 0 0 0 0 0 0 0 0 0 0 0 0 0 0 0 1 0"/>
<feBlend mode="normal" in2="BackgroundImageFix" result="effect1_dropShadow_1_34"/>
<feBlend mode="normal" in="SourceGraphic" in2="effect1_dropShadow_1_34" result="shape"/>
</filter>
<radialGradient id="paint0_radial_1_34" cx="0" cy="0" r="1" gradientUnits="userSpaceOnUse" gradientTransform="translate(960 540) rotate(90) scale(961.972 961.972)">
<stop stop-color="#D3FF0D"/>
<stop offset="1"/>
</radialGradient>
<clipPath id="clip0_1_34">
<rect width="212.081" height="24.6026" fill="white" transform="translate(1627.6 979.749)"/>
</clipPath>
</defs>
</svg>
