<svg width="213" height="25" viewBox="0 0 213 25" fill="none" xmlns="http://www.w3.org/2000/svg">
<g clip-path="url(#clip0_1_196)">
<path d="M16.9657 16.2987H8.48468V7.98022H0V16.2987H4.24048V20.4615H8.48468V24.6208H16.9657V20.4615H21.2062V16.2987H25.4466V7.98022H16.9657V16.2987Z" fill="#D3FF0D"/>
<path d="M38.1674 12.2562H46.6482V20.5782H38.1674V12.2562H29.6864V24.7375H55.1329V8.09692H38.1674V12.2562Z" fill="#D3FF0D"/>
<path d="M67.8634 3.81738H59.3824V24.6173H67.8634V3.81738Z" fill="#D3FF0D"/>
<path d="M89.0667 7.97664H72.1011V24.6173H97.5477V3.81738H89.0667V7.97664ZM89.0667 20.4581H80.5857V12.1395H89.0667V20.4581Z" fill="#D3FF0D"/>
<path d="M110.268 16.2961H101.787V24.6147H110.268V16.2961Z" fill="#D3FF0D"/>
<path d="M122.997 3.81738H114.516V24.6173H122.997V3.81738Z" fill="#D3FF0D"/>
<path d="M135.729 12.1395H144.21V20.4615H135.729V12.1395H127.244V24.6208H152.691V7.98022H135.729V12.1395Z" fill="#D3FF0D"/>
<path d="M165.411 3.81738H156.93V24.6173H182.376V7.97664H165.411V3.81738ZM173.896 12.1359V20.4545H165.415V12.1359H173.896Z" fill="#D3FF0D"/>
<path d="M186.617 20.459V24.6183H212.063V16.2961H199.343V20.459H186.617Z" fill="#D3FF0D"/>
<path d="M186.617 16.2987H199.343V12.1395H212.063V7.98022H186.617V16.2987Z" fill="#D3FF0D"/>
<path d="M54.8109 0.934326H37.9939V4.67143H54.8109V0.934326Z" fill="#D3FF0D"/>
</g>
<defs>
<clipPath id="clip0_1_196">
<rect width="212.081" height="24.6026" fill="white"/>
</clipPath>
</defs>
</svg>
