<svg width="1040" height="580" viewBox="0 0 1040 580" fill="none" xmlns="http://www.w3.org/2000/svg">
<g clip-path="url(#clip0_2012_3833)">
<path d="M408.662 563.795L395.985 562.281C390.23 561.611 386.36 559.75 384.325 556.698C382.291 553.646 381.274 548.584 381.274 541.486V331.949C381.274 323.611 374.526 316.861 366.191 316.861H264.553C259.591 316.861 255.547 312.841 255.547 307.854V276.289C255.547 259.043 257.83 245.692 262.394 236.238C266.959 226.783 272.863 220.182 280.132 216.46C284.424 214.276 288.914 212.738 293.603 211.845C296.877 211.224 300.226 210.877 303.7 210.877C306.329 210.877 308.785 211.075 311.043 211.398C311.787 211.522 312.457 211.696 313.176 211.845C313.871 211.993 314.615 212.118 315.285 212.291C315.359 212.291 315.409 212.316 315.483 212.341C316.302 212.589 317.046 212.887 317.815 213.185C320.842 214.351 323.447 215.889 325.506 217.949C327.416 219.86 329.153 221.919 330.765 224.078C331.509 224.004 332.254 223.905 332.998 223.731C334.238 223.408 335.578 222.862 336.967 222.143C337.091 222.068 337.19 222.044 337.314 221.969C339.795 220.629 342.276 218.694 344.707 216.212C346.816 214.078 348.925 211.572 350.984 208.792C351.207 208.495 351.455 208.197 351.678 207.874C351.976 207.452 352.274 207.03 352.571 206.609C353.663 205.045 352.968 202.862 351.182 202.192C340.738 198.172 328.309 196.137 313.846 196.137C312.283 196.137 310.77 196.211 309.232 196.286C302.31 196.534 295.761 197.377 289.633 198.792C279.586 201.1 270.581 204.921 262.642 210.331C248.775 219.81 238.38 232.143 231.459 247.355C224.537 262.566 221.064 278.969 221.064 296.538V299.59C221.064 311.75 213.126 318.698 197.249 320.385C193.205 320.733 191.171 322.594 191.171 325.969C191.171 329.343 193.205 331.031 197.249 331.031H205.981C214.316 331.031 221.064 337.78 221.064 346.118V541.462C221.064 548.559 219.873 553.72 217.517 556.921C215.135 560.147 209.727 562.083 201.292 562.753L191.146 563.77C186.755 564.118 184.547 566.128 184.547 569.85C184.547 573.572 187.077 575.433 192.163 575.433H280.876C285.937 575.433 288.467 573.398 288.467 569.354C288.467 566.301 286.607 564.465 282.886 563.77L270.209 562.257C264.453 561.587 260.583 559.725 258.549 556.673C256.515 553.621 255.498 548.559 255.498 541.462V340.039C255.498 335.076 259.517 331.031 264.503 331.031H336.744C342.276 331.031 346.766 335.522 346.766 341.056V541.462C346.766 548.559 345.575 553.547 343.219 556.425C340.837 559.304 335.429 561.413 326.994 562.753L320.916 563.77C316.525 564.788 314.317 566.823 314.317 569.85C314.317 573.572 316.848 575.433 321.909 575.433H406.553C411.614 575.433 414.169 573.398 414.169 569.354C414.169 566.301 412.309 564.465 408.588 563.77L408.662 563.795Z" fill="currentColor"></path>
<path d="M619.605 563.794L608.442 562.281C601.347 561.263 596.683 559.328 594.5 556.449C592.292 553.571 591.2 548.583 591.2 541.486V376.69C591.2 356.068 586.635 340.435 577.506 329.789C568.377 319.144 556.221 313.809 541.014 313.809C529.528 313.809 518.612 316.166 508.317 320.906C497.997 325.645 486.089 334.43 472.568 347.284C469.864 349.989 467.408 350.932 465.225 350.063C463.017 349.22 461.926 347.284 461.926 344.232V321.427C461.926 317.382 460.413 315.347 457.361 315.347C455.327 315.347 452.796 316.861 449.77 319.913C443.692 325.323 437.862 329.889 432.28 333.611C426.698 337.333 418.661 340.038 408.192 341.725C402.784 342.743 400.08 344.604 400.08 347.309C400.08 350.684 402.263 352.545 406.678 352.892L417.321 354.406C422.059 355.076 425.334 356.515 427.195 358.724C429.055 360.932 429.973 365.052 429.973 371.156V541.535C429.973 548.633 428.882 553.62 426.674 556.499C424.466 559.377 419.827 561.487 412.732 562.827L406.654 563.844C402.263 564.862 400.055 566.896 400.055 569.924C400.055 573.646 402.585 575.507 407.646 575.507H493.308C498.369 575.507 500.899 573.472 500.899 569.427C500.899 566.375 499.039 564.539 495.317 563.844L481.623 562.33C474.528 561.66 469.864 559.799 467.681 556.747C465.473 553.695 464.382 548.633 464.382 541.535V405.649C464.382 393.142 466.912 381.727 471.973 371.429C477.034 361.131 483.881 352.843 492.514 346.589C501.122 340.336 510.847 337.209 521.663 337.209C532.48 337.209 541.435 340.584 547.513 347.358C553.591 354.133 556.643 365.796 556.643 382.348V541.56C556.643 548.657 555.551 553.72 553.343 556.772C551.135 559.824 546.496 561.834 539.401 562.852L532.306 563.869C528.585 564.539 526.724 566.574 526.724 569.949C526.724 573.671 529.081 575.532 533.819 575.532H618.985C623.029 575.532 625.063 573.671 625.063 569.949C625.063 566.574 623.202 564.539 619.481 563.869L619.605 563.794Z" fill="currentColor"></path>
<path d="M661.702 434.98H758.006C766.441 434.98 770.683 429.397 770.683 418.255C770.683 381.405 764.506 354.803 752.176 338.4C739.847 321.998 723.697 313.809 703.776 313.809C687.204 313.809 672.17 319.566 658.65 331.055C645.13 342.544 634.487 358.426 626.722 378.725C618.957 398.998 615.062 422.498 615.062 449.199C615.062 475.9 618.858 498.134 626.474 517.912C634.065 537.689 644.286 552.975 657.137 563.795C669.987 574.614 684.5 580.024 700.724 580.024C716.949 580.024 731.982 574.018 743.816 562.033C755.649 550.047 764.258 529.004 769.666 498.903C770.683 492.154 769.17 488.754 765.101 488.754C761.727 488.754 759.519 490.615 758.502 494.337C753.441 515.976 746.842 531.361 738.73 540.468C730.618 549.6 720.149 554.166 707.299 554.166C691.074 554.166 677.727 545.208 667.259 527.292C656.79 509.375 651.555 482.501 651.555 446.668C651.555 438.901 654.929 435.005 661.702 435.005V434.98ZM703.28 332.668C708.489 332.668 716.105 334.231 721.91 347.681C726.946 359.369 729.502 375.945 729.502 396.939C729.502 410.364 724.069 416.096 711.367 416.096H660.163C659.444 416.096 658.948 416.021 658.65 415.972C658.65 415.724 658.65 415.327 658.725 414.781C661.329 387.757 666.936 366.789 675.396 352.421C683.21 339.12 692.339 332.668 703.255 332.668H703.28Z" fill="currentColor"></path>
<path d="M44.3114 101.442C45.5766 101.963 47.1643 101.591 49.0497 100.325C50.9351 99.0599 52.8453 97.844 54.7307 96.6777C56.641 95.5114 58.6256 94.4195 60.7343 93.3525C62.4212 92.3102 63.736 92.2358 64.6787 93.2036C65.6214 94.1465 65.8943 95.4865 65.4726 97.1491L54.9044 142.734C54.4827 144.571 55.8719 146.308 57.7573 146.308H72.8158C74.1802 146.308 75.3462 145.365 75.6687 144.049L87.9486 91.1439C89.4123 83.9724 95.4406 80.3742 105.984 80.3742C117.793 80.3742 126.748 83.5009 132.876 89.7047C138.979 95.9332 142.055 106.107 142.055 120.252C142.055 127.895 141.435 135.439 140.169 142.883C139.872 144.67 141.211 146.308 143.022 146.308H159.867C161.306 146.308 162.546 145.265 162.769 143.876C163.712 137.995 164.184 132.014 164.184 125.959C164.184 107.596 159.222 93.9976 149.324 85.1387C139.4 76.2798 126.649 71.8379 111.045 71.8379C106.604 71.8379 101.965 72.1605 97.1276 72.7809C93.7537 73.4012 92.3893 71.9371 93.0095 68.339L95.2174 59.1574C95.8376 56.4278 95.5399 54.3185 94.2747 52.8296C93.0095 51.3655 91.0992 50.6211 88.5936 50.6211H82.8878C78.4472 50.6211 75.7183 52.8296 74.6516 57.2715L70.5334 75.312C69.69 79.1087 67.482 81.8631 63.8849 83.5505C57.5589 86.5035 51.4313 89.9776 45.527 93.9976C43.4183 95.4865 42.3516 96.9506 42.3516 98.4395C42.3516 99.9284 42.9718 100.921 44.2618 101.442H44.3114Z" fill="currentColor"></path>
<path d="M179.71 134.2C181.819 134.2 183.308 132.835 184.151 130.081C189.857 114.472 194.967 103.876 199.507 98.2678C204.047 92.6844 208.215 89.8803 212.01 89.8803C215.186 89.8803 217.121 91.1955 217.865 93.8259C218.609 96.4563 218.436 100.104 217.394 104.744L208.364 142.711C207.917 144.548 209.306 146.31 211.192 146.31H232.08C233.271 146.31 234.362 145.565 234.784 144.448C236.198 140.875 237.612 137.376 239.051 134.026C244.856 120.428 250.289 109.608 255.35 101.593C260.411 93.5777 264.529 89.5577 267.679 89.5577C269.59 89.5577 270.954 90.4014 271.798 92.0888C272.641 93.7763 273.435 95.7367 274.179 97.9452C274.923 100.154 276.015 102.114 277.503 103.802C278.967 105.489 281.398 106.333 284.772 106.333C288.766 106.333 292.041 104.744 294.571 101.593C297.102 98.4167 298.367 94.1981 298.367 88.9373C298.367 83.6766 296.953 79.5077 294.1 76.4306C291.247 73.3784 286.98 71.8398 281.274 71.8398C272.839 71.8398 265.348 75.438 258.823 82.6095C252.274 89.7811 245.005 102.561 236.992 120.899C236.372 122.165 235.628 122.686 234.784 122.487C233.941 122.289 233.618 121.445 233.841 119.956L237.314 105.092C240.043 93.28 239.944 84.7933 236.992 79.6069C234.04 74.4454 229.078 71.8647 222.132 71.8647C217.691 71.8647 212.854 73.5521 207.57 76.9269C202.286 80.3017 197.076 86.1084 191.916 94.3222C186.756 102.561 181.844 113.951 177.205 128.492C175.716 132.289 176.56 134.2 179.735 134.2H179.71Z" fill="currentColor"></path>
<path d="M295.561 146.31H312.827C314.142 146.31 315.283 145.416 315.631 144.151C318.533 133.579 322.081 123.778 326.372 114.869C331.533 104.099 337.387 95.5133 343.937 89.0862C350.461 82.6592 357.01 79.4332 363.56 79.4332C377.278 79.4332 384.125 92.61 384.125 118.988C384.125 127.003 383.53 134.994 382.389 142.96C382.141 144.721 383.48 146.31 385.242 146.31H402.161C403.674 146.31 404.939 145.168 405.088 143.679C405.436 139.932 405.634 136.135 405.634 132.289C405.634 113.504 401.838 98.7393 394.247 87.9696C386.656 77.1999 376.311 71.8398 363.237 71.8398C354.157 71.8398 345.152 74.7432 336.196 80.5499C327.216 86.3566 319.104 94.2229 311.835 104.124C304.566 114.05 298.712 125.316 294.271 137.997C293.725 139.535 293.229 141.074 292.782 142.612C292.212 144.473 293.651 146.334 295.586 146.334L295.561 146.31Z" fill="currentColor"></path>
<path d="M362.027 258.028C369.122 258.028 374.282 256.092 377.483 252.196C380.683 248.325 382.295 243.164 382.295 236.737C382.295 232.22 381.204 227.952 379.021 223.907C378.103 222.22 375.796 221.922 374.406 223.262C373.885 223.783 373.34 224.279 372.769 224.825C372.67 224.925 372.571 224.999 372.447 225.098C368.552 228.696 364.508 231.848 360.415 234.503C356.148 237.258 351.757 239.441 347.316 241.054C346.994 241.178 346.671 241.302 346.324 241.427C345.828 241.6 345.331 241.749 344.811 241.898C342.975 242.444 342.181 244.603 343.173 246.241C344.165 247.878 345.207 249.467 346.274 250.931C349.648 255.67 354.883 258.028 361.978 258.028H362.027Z" fill="currentColor"></path>
<path d="M437.89 146.309H460.118C461.209 146.309 462.202 145.689 462.698 144.696C467.213 135.738 472.026 127.301 477.136 119.459C483.239 110.079 489.267 102.535 495.171 96.828C501.076 91.1205 506.36 88.2916 510.999 88.2916C515.216 88.2916 518.168 89.9294 519.855 93.205C521.542 96.4806 522.386 102.114 522.386 110.129C522.386 120.477 521.021 131.172 518.268 142.264C518.243 142.388 518.193 142.537 518.168 142.661C517.697 144.522 519.061 146.334 520.972 146.334H537.146C538.461 146.334 539.652 145.44 539.975 144.175C542.976 132.909 544.49 121.668 544.49 110.476C544.49 97.8206 542.207 88.2172 537.692 81.666C533.152 75.1397 526.975 71.8641 519.185 71.8641C511.396 71.8641 502.564 76.033 493.41 84.3709C484.231 92.7087 473.836 107.945 462.251 130.105C461.631 131.37 460.887 131.892 460.043 131.693C459.2 131.494 458.877 130.651 459.101 129.162L487.878 4.73966C488.523 1.56334 487.555 0 485.025 0C483.536 0 481.974 0.620374 480.287 1.91075C476.689 4.86373 471.951 7.24597 466.047 9.03265C460.142 10.8193 453.395 12.3578 445.803 13.6234C443.273 14.0453 441.785 15.2116 441.363 17.0975C440.941 19.6286 442.306 20.9935 445.481 21.2168L454.982 22.1598C457.935 22.3831 459.894 23.2268 460.837 24.6909C461.78 26.1798 461.73 28.8102 460.688 32.6069L435.037 142.76C434.615 144.597 436.004 146.334 437.89 146.334V146.309Z" fill="currentColor"></path>
<path d="M589.29 135.938C593.83 125.293 598.89 115.739 604.472 107.302C610.054 98.8647 615.909 92.1647 622.036 87.2017C628.164 82.2387 633.944 79.7572 639.427 79.7572C648.506 79.7572 653.021 86.1843 653.021 99.0632C653.021 106.235 651.483 114.994 648.432 125.342C646.795 130.876 644.835 136.559 642.602 142.341C641.858 144.251 643.247 146.336 645.306 146.336H663.019C664.383 146.336 665.549 145.393 665.872 144.078L681.178 78.1938C681.799 75.2409 680.757 73.752 678.003 73.752C676.738 73.752 675.373 74.2235 673.885 75.1664C672.396 76.1094 670.511 78.2931 668.179 81.6431C666.914 83.5539 665.649 84.4968 664.383 84.4968C663.118 84.4968 661.853 83.5539 660.588 81.6431C658.256 78.2683 655.304 75.7868 651.731 74.1986C648.134 72.6105 644.339 71.8164 640.344 71.8164C632.108 71.8164 623.847 74.2979 615.512 79.2609C607.176 84.2239 599.262 90.9239 591.77 99.361C584.278 107.798 577.58 117.501 571.676 128.469C569.245 132.96 567.062 137.576 565.077 142.266C564.258 144.177 565.697 146.286 567.781 146.286H583.162C584.378 146.286 585.469 145.517 585.891 144.375C586.958 141.522 588.049 138.693 589.24 135.889L589.29 135.938Z" fill="currentColor"></path>
<path d="M724.224 146.31H746.452C747.544 146.31 748.536 145.69 749.032 144.697C753.547 135.739 758.36 127.302 763.47 119.46C769.573 110.08 775.602 102.537 781.506 96.8291C787.41 91.1217 792.694 88.2928 797.333 88.2928C801.551 88.2928 804.503 89.9306 806.19 93.2061C807.877 96.4817 808.72 102.115 808.72 110.13C808.72 120.478 807.356 131.173 804.602 142.265C804.577 142.389 804.528 142.538 804.503 142.662C804.032 144.523 805.396 146.335 807.306 146.335H823.481C824.796 146.335 825.987 145.442 826.309 144.176C829.311 132.91 830.824 121.669 830.824 110.477C830.824 97.8217 828.542 88.2183 824.027 81.6672C819.487 75.1408 813.31 71.8653 805.52 71.8653C797.73 71.8653 788.899 76.0342 779.745 84.372C770.566 92.7098 760.171 107.946 748.586 130.106C747.966 131.372 747.221 131.893 746.378 131.694C745.534 131.496 745.212 130.652 745.435 129.163L774.237 4.79044C774.882 1.61412 773.915 0.0507812 771.384 0.0507812C769.896 0.0507812 768.333 0.671155 766.646 1.96153C763.049 4.91451 758.31 7.29675 752.406 9.08343C746.502 10.8701 739.754 12.4086 732.163 13.6742C729.632 14.096 728.144 15.2624 727.722 17.1483C727.3 19.6794 728.665 21.0442 731.84 21.2676L741.342 22.2105C744.294 22.4339 746.254 23.2776 747.196 24.7417C748.139 26.2306 748.09 28.8609 747.048 32.6576L721.396 142.811C720.974 144.648 722.364 146.385 724.249 146.385L724.224 146.31Z" fill="currentColor"></path>
<path d="M860.567 146.309H875.253C876.617 146.309 877.783 145.366 878.081 144.051L910.604 4.73966C911.249 1.56334 910.282 0 907.751 0C906.263 0 904.7 0.620374 903.013 1.91075C899.416 4.86373 894.678 7.24597 888.773 9.03265C882.869 10.8193 876.121 12.3578 868.53 13.6234C866 14.0453 864.511 15.2116 864.089 17.0975C863.668 19.6286 865.032 20.9935 868.208 21.2168L877.709 22.1598C880.661 22.3831 882.621 23.2268 883.564 24.6909C884.506 26.1798 884.457 28.8102 883.415 32.6069L857.763 142.76C857.342 144.597 858.731 146.334 860.616 146.334L860.567 146.309Z" fill="currentColor"></path>
<path d="M1024.82 71.8398C1017.65 71.8398 1014.05 75.9591 1014.05 84.1729C1014.05 88.3914 1015.05 92.2874 1017.06 95.8855C1019.07 99.4837 1021 103.851 1022.91 109.013C1024.8 114.174 1025.76 121.197 1025.76 130.056C1025.76 134.175 1025.39 138.468 1024.65 142.935C1024.35 144.721 1025.76 146.31 1027.57 146.31H1031.22C1032.26 145.515 1033.01 144.945 1034.05 144.175C1038.02 130.205 1040.03 117.276 1040.03 105.39C1040.03 83.0314 1034.97 71.8398 1024.85 71.8398H1024.82Z" fill="currentColor"></path>
<path d="M919.459 134.198C921.568 134.198 922.933 132.834 923.578 130.079C926.306 114.471 929.804 103.875 934.022 98.2664C938.239 92.683 942.68 89.8789 947.319 89.8789C949.849 89.8789 951.958 90.9956 953.645 93.2041C955.332 95.4127 956.274 99.2838 956.498 104.768L958.11 143.529C958.185 145.092 959.45 146.333 961.013 146.333H975.947C977.609 146.333 978.924 144.968 978.85 143.306L977.336 101.914C976.915 90.946 974.806 83.2037 971.01 78.6626C967.215 74.1214 962.03 71.8633 955.505 71.8633C951.065 71.8633 946.277 73.5507 941.117 76.9255C935.957 80.3004 931.094 86.1071 926.554 94.3208C922.015 102.559 918.492 113.949 915.962 128.491C915.316 132.288 916.482 134.198 919.435 134.198H919.459Z" fill="currentColor"></path>
<path d="M979.668 165.241H52.0485C50.6841 165.241 49.5181 166.184 49.1956 167.499L47.4094 175.167L23.3953 278.819C22.3534 283.46 20.8153 286.686 18.8058 288.472C16.7964 290.259 13.6954 291.475 9.47802 292.12L5.03739 292.765C1.6635 293.187 -0.0234375 294.453 -0.0234375 296.562C-0.0234375 298.87 1.341 300.036 4.09469 300.036H61.0538C64.651 300.036 66.4371 298.771 66.4371 296.239C66.4371 294.329 64.5269 293.063 60.7313 292.443L52.495 291.177C48.4762 290.532 45.8961 289.49 44.755 288.001C43.589 286.512 43.5394 283.46 44.6061 278.819L54.1076 237.031C54.7278 233.855 56.638 233.036 59.8134 234.5C64.8742 236.808 70.2576 237.974 75.9386 237.974C86.2835 237.974 96.6036 234.872 106.949 228.643C117.293 222.415 126.77 214.027 135.428 203.481C142.027 195.416 147.634 186.532 152.273 176.805C152.744 175.788 153.761 175.142 154.878 175.142H196.927C198.812 175.142 200.202 176.904 199.755 178.741L187.302 231.026C186.681 233.78 187.823 235.145 190.775 235.145H203.749C206.056 235.145 207.545 233.979 208.19 231.671C212.184 213.953 216.897 196.657 222.281 179.758C222.554 178.889 222.827 178.021 223.124 177.177C223.521 175.986 224.638 175.167 225.903 175.167H287.675C287.675 175.961 287.625 176.755 287.625 177.549C287.625 181.768 287.848 185.738 288.245 189.56C288.419 191.272 290.056 192.389 291.718 192.066C296.432 191.148 301.319 190.553 306.429 190.255C307.968 190.155 309.158 188.94 309.183 187.401C309.233 184.225 309.382 181.048 309.63 177.872C309.754 176.358 311.044 175.167 312.557 175.167H370.508C372.518 175.167 373.957 177.152 373.262 179.038C371.302 184.498 369.119 189.709 366.713 194.622C365.621 196.856 364.505 198.965 363.364 201.024C362.322 202.886 361.28 204.647 360.213 206.36C359.072 208.171 357.906 209.883 356.74 211.521C354.309 214.896 351.803 217.923 349.174 220.579C346.246 223.556 343.294 225.815 340.317 227.428C338.407 228.47 336.472 229.264 334.537 229.76C332.825 230.182 331.113 230.405 329.402 230.405C328.757 230.405 328.161 230.356 327.541 230.281C321.438 229.686 316.849 226.088 313.773 219.487C313.376 218.643 312.681 217.998 311.763 217.799C309.382 217.303 306.727 217.055 303.725 217.055C302.882 217.055 302.014 217.055 301.17 217.129C298.962 217.253 297.697 219.834 298.962 221.646C298.962 221.646 298.962 221.67 298.987 221.695C306.578 232.564 316.923 237.999 329.997 237.999C330.568 237.999 331.138 237.949 331.709 237.924C333.892 237.825 336.05 237.577 338.233 237.155C340.268 236.758 342.302 236.212 344.336 235.542C348.578 234.103 352.82 232.018 357.038 229.289C361.032 226.708 364.852 223.68 368.524 220.256C370.037 218.866 371.501 217.402 372.964 215.889C374.354 214.4 375.718 212.836 377.058 211.223C378.521 209.462 379.985 207.625 381.399 205.714C387.651 197.178 392.811 187.6 396.954 177.028C397.4 175.912 398.467 175.167 399.658 175.167H423.796C425.681 175.167 427.071 176.929 426.649 178.741L425.235 184.82C422.481 196.632 422.233 206.509 424.441 214.4C426.649 222.291 430.544 228.222 436.15 232.118C441.732 236.014 448.133 237.974 455.302 237.974C463.538 237.974 471.849 235.492 480.309 230.529C488.743 225.566 496.806 218.866 504.521 210.429C512.212 201.992 519.083 192.29 525.087 181.321C525.906 179.808 526.699 178.294 527.444 176.755C527.94 175.763 528.932 175.142 530.049 175.142H551.607C553.418 175.142 554.757 176.755 554.46 178.542C553.343 185.49 552.773 192.438 552.773 199.362C552.773 212.017 554.881 221.621 559.099 228.172C563.316 234.723 569.22 237.974 576.812 237.974C584.825 237.974 593.309 233.755 602.289 225.318C611.245 216.881 621.54 202.017 633.126 180.701C633.746 179.435 634.54 178.914 635.507 179.113C636.45 179.336 636.723 180.18 636.301 181.644L632.183 199.039C629.429 211.074 629.801 220.554 633.299 227.527C636.772 234.5 642.627 237.974 650.863 237.974C660.365 237.974 668.477 233.706 675.225 225.145C681.973 216.608 687.356 202.414 691.35 182.587C691.772 180.9 691.772 179.411 691.35 178.145C690.928 176.879 689.986 176.234 688.497 176.234C686.388 176.234 685.024 177.401 684.379 179.708C680.36 193.431 676.416 203.556 672.521 210.082C668.626 216.633 664.235 219.884 659.397 219.884C652.005 219.884 649.896 213.035 653.071 199.312L658.182 177.351C658.479 176.036 659.67 175.093 661.035 175.093H710.204C712.09 175.093 713.479 176.855 713.057 178.666L711.643 184.746C708.889 196.558 708.641 206.434 710.849 214.325C713.057 222.216 716.952 228.147 722.559 232.043C728.14 235.939 734.541 237.899 741.71 237.899C749.947 237.899 758.257 235.418 766.717 230.455C775.151 225.492 783.214 218.792 790.929 210.355C798.62 201.918 805.492 192.215 811.495 181.247C812.314 179.733 813.108 178.219 813.852 176.681C814.348 175.688 815.34 175.068 816.457 175.068H846.574C848.459 175.068 849.848 176.83 849.426 178.641L843.299 204.97C840.545 216.782 840.669 225.269 843.621 230.455C846.574 235.616 851.535 238.197 858.481 238.197C863.12 238.197 868.082 236.51 873.366 233.135C878.625 229.76 883.959 223.904 889.342 215.566C894.726 207.228 899.613 195.888 904.054 181.545C905.517 177.748 904.674 175.837 901.523 175.837C899.415 175.837 897.926 177.202 897.083 179.957C891.377 195.565 886.266 206.186 881.726 211.769C877.187 217.353 873.019 220.157 869.223 220.157C866.048 220.157 864.113 218.842 863.369 216.211C862.624 213.581 862.773 209.933 863.84 205.293L870.364 177.301C870.662 175.986 871.853 175.043 873.193 175.043H956.671C958.234 175.043 959.524 176.284 959.574 177.847L961.261 218.271C961.906 231.77 959.772 243.954 954.935 254.823C950.072 265.692 943.87 274.229 936.279 280.457C928.688 286.686 920.973 289.788 913.183 289.788C909.189 289.788 906.286 288.72 904.475 286.611C902.689 284.502 901.374 282.02 900.531 279.167C899.687 276.313 898.422 273.832 896.735 271.722C895.048 269.613 892.195 268.546 888.201 268.546C885.472 268.546 882.942 269.663 880.61 271.871C878.303 274.08 877.137 277.405 877.137 281.847C877.137 287.753 879.345 292.765 883.786 296.885C888.226 301.004 894.428 303.064 902.466 303.064C911.521 303.064 921.171 299.937 931.417 293.733C941.638 287.505 951.883 279.018 962.104 268.248C972.325 257.478 982.149 245.344 991.527 231.845C1000.9 218.345 1009.24 204.151 1016.53 189.287C1018.86 184.522 1021.02 179.758 1023.06 175.043C1023.9 173.058 1024.72 171.073 1025.51 169.112C1026.31 167.152 1024.84 165.117 1022.78 165.117H979.768L979.668 165.241ZM120.221 195.739C113.672 206.186 106.626 214.524 99.01 220.752C91.4188 226.981 83.9268 230.083 76.5588 230.083C63.6834 230.083 59.1684 219.636 62.964 198.741L67.9256 177.401C68.2233 176.085 69.4141 175.142 70.7785 175.142H126.274C128.383 175.142 129.821 177.301 128.953 179.212C126.348 185.044 123.471 190.553 120.246 195.714L120.221 195.739ZM491.522 202.712C485.717 211.05 479.763 217.7 473.635 222.663C467.508 227.626 461.727 230.108 456.245 230.108C447.165 230.108 442.65 223.68 442.65 210.802C442.65 202.563 444.238 193.133 447.388 182.463C447.909 180.701 448.48 178.939 449.051 177.177C449.447 175.986 450.564 175.167 451.829 175.167H502.313C504.447 175.167 505.886 177.401 504.968 179.336C500.899 187.872 496.409 195.689 491.522 202.712ZM619.655 188.94C613.651 198.642 607.573 206.558 601.471 212.687C595.343 218.817 589.761 221.869 584.701 221.869C581.327 221.869 578.747 220.554 576.960 217.923C575.174 215.293 574.281 210.280 574.281 202.886C574.281 194.597 575.100 186.160 576.688 177.574C576.936 176.185 578.176 175.167 579.565 175.167H622.682C624.889 175.167 626.328 177.549 625.237 179.485C623.426 182.711 621.590 185.862 619.680 188.940H619.655ZM777.855 202.712C772.050 211.050 766.096 217.700 759.969 222.663C753.841 227.626 748.061 230.108 742.578 230.108C733.499 230.108 728.984 223.680 728.984 210.802C728.984 202.563 730.571 193.133 733.722 182.463C734.243 180.701 734.814 178.939 735.384 177.177C735.781 175.986 736.897 175.167 738.163 175.167H788.647C790.780 175.167 792.219 177.401 791.301 179.336C787.233 187.872 782.743 195.689 777.855 202.712ZM1005.99 192.587C999.986 203.655 993.288 214.375 985.895 224.698C985.052 225.963 984.159 226.435 983.216 226.112C982.273 225.790 981.802 224.896 981.802 223.432L980.165 178.170C980.115 176.507 981.430 175.142 983.067 175.142H1010.01C1012.12 175.142 1013.56 177.326 1012.66 179.237C1010.65 183.654 1008.42 188.096 1006.01 192.538L1005.99 192.587Z" fill="currentColor"></path>
<path d="M814.769 575.436C832.225 575.436 846.375 561.281 846.375 543.821C846.375 526.361 832.225 512.207 814.769 512.207C797.314 512.207 783.164 526.361 783.164 543.821C783.164 561.281 797.314 575.436 814.769 575.436Z" fill="currentColor"></path>
</g>
<defs>
<clipPath id="clip0_2012_3833">
<rect width="1040" height="580" fill="white"></rect>
</clipPath>
</defs>
</svg>