<svg width="1165" height="290" viewBox="0 0 1165 290" fill="none" xmlns="http://www.w3.org/2000/svg">
<path d="M136.966 35.0969H205.449V103.58H171.207V137.821H136.966V172.063H68.4829V137.821H34.2414V103.58H0V35.0969H68.4829V103.58H136.966V35.0969Z" fill="#D3FF0D"/>
<path d="M376.428 103.351V69.3383H308.173V103.351H376.428ZM239.69 35.0969H445.139V104.036H376.656V137.821H445.139V172.063H239.69V35.0969Z" fill="#D3FF0D"/>
<path d="M582.104 35.0969H684.829V69.3383H650.587V137.821H684.829V172.063H582.104V103.58H547.863V172.063H479.38V0.855469H547.863V69.3383H582.104V35.0969Z" fill="#D3FF0D"/>
<path d="M821.795 35.0969H924.519V69.3383H821.795V137.821H924.519V172.063H753.312V69.3383H719.07V35.0969H753.312V0.855469H821.795V35.0969Z" fill="#D3FF0D"/>
<path d="M1095.5 103.351V69.3383H1027.24V103.351H1095.5ZM958.76 35.0969H1164.21V104.036H1095.73V137.821H1164.21V172.063H958.76V35.0969Z" fill="#D3FF0D"/>
<g clip-path="url(#clip0_1851_179)">
<path d="M537.618 263.336H510.385V236.625H483.141V263.336H496.757V276.703H510.385V290.059H537.618V276.703H551.235V263.336H564.851V236.625H537.618V263.336Z" fill="#D3FF0D"/>
<path d="M605.698 250.356H632.93V277.078H605.698V250.356H578.465V290.434H660.175V237H605.698V250.356Z" fill="#D3FF0D"/>
<path d="M701.053 223.258H673.82V290.047H701.053V223.258Z" fill="#D3FF0D"/>
<path d="M769.138 236.613H714.66V290.047H796.37V223.258H769.138V236.613ZM769.138 276.692H741.905V249.981H769.138V276.692Z" fill="#D3FF0D"/>
<path d="M837.217 263.328H809.984V290.039H837.217V263.328Z" fill="#D3FF0D"/>
<path d="M878.088 223.258H850.855V290.047H878.088V223.258Z" fill="#D3FF0D"/>
<path d="M918.971 249.981H946.204V276.703H918.971V249.981H891.727V290.059H973.437V236.625H918.971V249.981Z" fill="#D3FF0D"/>
<path d="M1014.28 223.258H987.051V290.047H1068.76V236.613H1014.28V223.258ZM1041.53 249.969V276.68H1014.3V249.969H1041.53Z" fill="#D3FF0D"/>
<path d="M1082.38 276.695V290.051H1164.09V263.328H1123.24V276.695H1082.38Z" fill="#D3FF0D"/>
<path d="M1082.38 263.336H1123.24V249.981H1164.09V236.625H1082.38V263.336Z" fill="#D3FF0D"/>
<path d="M659.141 214H605.141V226H659.141V214Z" fill="#D3FF0D"/>
</g>
<defs>
<clipPath id="clip0_1851_179">
<rect width="681" height="79" fill="white" transform="translate(483.141 211)"/>
</clipPath>
</defs>
</svg>
